Benzinova-UltraCondensed-Thin.ufo
<glyph name="exclam" format="1">
  <advance width="160"/>
  <unicode hex="0021"/>
  <outline>
    <contour>
      <point x="80" y="1200" type="curve" smooth="yes"/>
      <point x="72" y="1200"/>
      <point x="64" y="1192"/>
      <point x="64" y="1184" type="curve" smooth="yes"/>
      <point x="64" y="110" type="line" smooth="yes"/>
      <point x="64" y="102"/>
      <point x="72" y="94"/>
      <point x="80" y="94" type="curve" smooth="yes"/>
      <point x="88" y="94"/>
      <point x="96" y="102"/>
      <point x="96" y="110" type="curve" smooth="yes"/>
      <point x="96" y="1184" type="line" smooth="yes"/>
      <point x="96" y="1192"/>
      <point x="88" y="1200"/>
    </contour>
    <contour>
      <point x="80" y="0" type="curve" smooth="yes"/>
      <point x="90" y="0"/>
      <point x="100" y="8"/>
      <point x="100" y="20" type="curve" smooth="yes"/>
      <point x="100" y="30"/>
      <point x="90" y="40"/>
      <point x="80" y="40" type="curve" smooth="yes"/>
      <point x="68" y="40"/>
      <point x="60" y="30"/>
      <point x="60" y="20" type="curve" smooth="yes"/>
      <point x="60" y="8"/>
      <point x="68" y="0"/>
    </contour>
  </outline>
</glyph>
<glyph name="numbersign" format="1">
  <advance width="676.0"/>
  <unicode hex="0023"/>
  <outline>
    <contour>
      <point x="580" y="462" type="curve"/>
      <point x="470" y="462" type="line"/>
      <point x="532" y="648" type="line"/>
      <point x="532" y="650"/>
      <point x="532" y="650"/>
      <point x="532" y="652" type="curve" smooth="yes"/>
      <point x="532" y="660"/>
      <point x="526" y="668"/>
      <point x="516" y="668" type="curve" smooth="yes"/>
      <point x="510" y="668"/>
      <point x="504" y="664"/>
      <point x="500" y="658" type="curve"/>
      <point x="436" y="462" type="line"/>
      <point x="290" y="462" type="line"/>
      <point x="352" y="648" type="line"/>
      <point x="352" y="650"/>
      <point x="352" y="650"/>
      <point x="352" y="652" type="curve" smooth="yes"/>
      <point x="352" y="660"/>
      <point x="346" y="668"/>
      <point x="336" y="668" type="curve" smooth="yes"/>
      <point x="330" y="668"/>
      <point x="324" y="664"/>
      <point x="320" y="658" type="curve"/>
      <point x="256" y="462" type="line"/>
      <point x="148" y="462" type="line" smooth="yes"/>
      <point x="140" y="462"/>
      <point x="132" y="456"/>
      <point x="132" y="446" type="curve" smooth="yes"/>
      <point x="132" y="438"/>
      <point x="140" y="430"/>
      <point x="148" y="430" type="curve" smooth="yes"/>
      <point x="246" y="430" type="line"/>
      <point x="202" y="300" type="line"/>
      <point x="96" y="300" type="line" smooth="yes"/>
      <point x="88" y="300"/>
      <point x="80" y="292"/>
      <point x="80" y="284" type="curve" smooth="yes"/>
      <point x="80" y="274"/>
      <point x="88" y="268"/>
      <point x="96" y="268" type="curve" smooth="yes"/>
      <point x="190" y="268" type="line"/>
      <point x="108" y="20" type="line"/>
      <point x="108" y="18"/>
      <point x="108" y="18"/>
      <point x="108" y="16" type="curve" smooth="yes"/>
      <point x="108" y="8"/>
      <point x="114" y="0"/>
      <point x="124" y="0" type="curve" smooth="yes"/>
      <point x="130" y="0"/>
      <point x="136" y="4"/>
      <point x="140" y="10" type="curve"/>
      <point x="224" y="268" type="line"/>
      <point x="370" y="268" type="line"/>
      <point x="288" y="20" type="line"/>
      <point x="288" y="18"/>
      <point x="288" y="18"/>
      <point x="288" y="16" type="curve" smooth="yes"/>
      <point x="288" y="8"/>
      <point x="294" y="0"/>
      <point x="304" y="0" type="curve" smooth="yes"/>
      <point x="310" y="0"/>
      <point x="316" y="4"/>
      <point x="320" y="10" type="curve"/>
      <point x="404" y="268" type="line"/>
      <point x="520" y="268" type="line" smooth="yes"/>
      <point x="528" y="268"/>
      <point x="536" y="274"/>
      <point x="536" y="284" type="curve" smooth="yes"/>
      <point x="536" y="292"/>
      <point x="528" y="300"/>
      <point x="520" y="300" type="curve" smooth="yes"/>
      <point x="416" y="300" type="line"/>
      <point x="458" y="430" type="line"/>
      <point x="580" y="430" type="line" smooth="yes"/>
      <point x="588" y="430"/>
      <point x="596" y="438"/>
      <point x="596" y="446" type="curve" smooth="yes"/>
      <point x="596" y="456"/>
      <point x="588" y="462"/>
    </contour>
    <contour>
      <point x="382" y="300" type="line"/>
      <point x="236" y="300" type="line"/>
      <point x="278" y="430" type="line"/>
      <point x="426" y="430" type="line"/>
    </contour>
  </outline>
</glyph>
<glyph name="parenleft" format="1">
  <advance width="404.0"/>
  <unicode hex="0028"/>
  <outline>
    <contour>
      <point x="306" y="-32" type="curve" smooth="yes"/>
      <point x="314" y="-32"/>
      <point x="322" y="-26"/>
      <point x="322" y="-18" type="curve" smooth="yes"/>
      <point x="322" y="-14"/>
      <point x="320" y="-8"/>
      <point x="318" y="-4" type="curve"/>
      <point x="100" y="210"/>
      <point x="112" y="604"/>
      <point x="112" y="600" type="curve" smooth="yes"/>
      <point x="112" y="594"/>
      <point x="96" y="986"/>
      <point x="318" y="1204" type="curve" smooth="yes"/>
      <point x="320" y="1206"/>
      <point x="322" y="1210"/>
      <point x="322" y="1214" type="curve" smooth="yes"/>
      <point x="322" y="1224"/>
      <point x="314" y="1232"/>
      <point x="304" y="1232" type="curve" smooth="yes"/>
      <point x="300" y="1232"/>
      <point x="296" y="1230"/>
      <point x="294" y="1228" type="curve" smooth="yes"/>
      <point x="102" y="1028"/>
      <point x="80" y="632"/>
      <point x="80" y="600" type="curve" smooth="yes"/>
      <point x="80" y="594"/>
      <point x="90" y="340"/>
      <point x="168" y="164" type="curve" smooth="yes"/>
      <point x="194" y="106"/>
      <point x="264" y="-32"/>
    </contour>
  </outline>
</glyph>
<glyph name="plus" format="1">
  <advance width="612.0"/>
  <unicode hex="002B"/>
  <outline>
    <contour>
      <point x="516" y="562" type="curve"/>
      <point x="322" y="562" type="line"/>
      <point x="322" y="756" type="line" smooth="yes"/>
      <point x="322" y="766"/>
      <point x="314" y="772"/>
      <point x="306" y="772" type="curve" smooth="yes"/>
      <point x="298" y="772"/>
      <point x="290" y="766"/>
      <point x="290" y="756" type="curve" smooth="yes"/>
      <point x="290" y="562" type="line"/>
      <point x="96" y="562" type="line" smooth="yes"/>
      <point x="88" y="562"/>
      <point x="80" y="556"/>
      <point x="80" y="546" type="curve" smooth="yes"/>
      <point x="80" y="538"/>
      <point x="88" y="530"/>
      <point x="96" y="530" type="curve" smooth="yes"/>
      <point x="290" y="530" type="line"/>
      <point x="290" y="336" type="line" smooth="yes"/>
      <point x="290" y="328"/>
      <point x="298" y="320"/>
      <point x="306" y="320" type="curve" smooth="yes"/>
      <point x="314" y="320"/>
      <point x="322" y="328"/>
      <point x="322" y="336" type="curve" smooth="yes"/>
      <point x="322" y="530" type="line"/>
      <point x="516" y="530" type="line" smooth="yes"/>
      <point x="524" y="530"/>
      <point x="532" y="538"/>
      <point x="532" y="546" type="curve" smooth="yes"/>
      <point x="532" y="556"/>
      <point x="524" y="562"/>
    </contour>
  </outline>
</glyph>
<glyph name="comma" format="1">
  <advance width="204.0"/>
  <unicode hex="002C"/>
  <outline>
    <contour>
      <point x="124" y="20" type="curve" smooth="yes"/>
      <point x="124" y="30"/>
      <point x="114" y="40"/>
      <point x="104" y="40" type="curve" smooth="yes"/>
      <point x="94" y="40"/>
      <point x="86" y="34"/>
      <point x="84" y="24" type="curve" smooth="yes"/>
      <point x="60" y="-56" type="line"/>
      <point x="60" y="-58"/>
      <point x="60" y="-58"/>
      <point x="60" y="-60" type="curve" smooth="yes"/>
      <point x="60" y="-68"/>
      <point x="64" y="-76"/>
      <point x="74" y="-76" type="curve" smooth="yes"/>
      <point x="82" y="-76"/>
      <point x="88" y="-72"/>
      <point x="90" y="-66" type="curve" smooth="yes"/>
      <point x="122" y="12" type="line" smooth="yes"/>
      <point x="124" y="14"/>
      <point x="124" y="16"/>
    </contour>
  </outline>
</glyph>
<glyph name="hyphen" format="1">
  <advance width="404.0"/>
  <unicode hex="002D"/>
  <outline>
    <contour>
      <point x="308" y="530" type="line"/>
      <point x="316" y="530"/>
      <point x="324" y="538"/>
      <point x="324" y="546" type="curve" smooth="yes"/>
      <point x="324" y="556"/>
      <point x="316" y="562"/>
      <point x="308" y="562" type="curve" smooth="yes"/>
      <point x="96" y="562" type="line" smooth="yes"/>
      <point x="88" y="562"/>
      <point x="80" y="556"/>
      <point x="80" y="546" type="curve" smooth="yes"/>
      <point x="80" y="538"/>
      <point x="88" y="530"/>
      <point x="96" y="530" type="curve" smooth="yes"/>
    </contour>
  </outline>
</glyph>
<glyph name="zero" format="1">
  <advance width="616.0"/>
  <unicode hex="0030"/>
  <outline>
    <contour>
      <point x="536" y="998" type="line"/>
      <point x="536" y="1004" type="line" smooth="yes"/>
      <point x="536" y="1130"/>
      <point x="434" y="1232"/>
      <point x="308" y="1232" type="curve" smooth="yes"/>
      <point x="182" y="1232"/>
      <point x="80" y="1130"/>
      <point x="80" y="1004" type="curve" smooth="yes"/>
      <point x="80" y="196" type="line"/>
      <point x="80" y="196" type="line"/>
      <point x="80" y="70"/>
      <point x="182" y="-32"/>
      <point x="308" y="-32" type="curve" smooth="yes"/>
      <point x="434" y="-32"/>
      <point x="536" y="70"/>
      <point x="536" y="196" type="curve" smooth="yes"/>
      <point x="536" y="998" type="line"/>
    </contour>
    <contour>
      <point x="308" y="1200" type="curve" smooth="yes"/>
      <point x="416" y="1200"/>
      <point x="504" y="1112"/>
      <point x="504" y="1004" type="curve"/>
      <point x="112" y="260" type="line"/>
      <point x="112" y="1004" type="line" smooth="yes"/>
      <point x="112" y="1112"/>
      <point x="200" y="1200"/>
    </contour>
    <contour>
      <point x="308" y="0" type="curve" smooth="yes"/>
      <point x="202" y="0"/>
      <point x="114" y="86"/>
      <point x="112" y="192" type="curve"/>
      <point x="504" y="934" type="line"/>
      <point x="504" y="196" type="line" smooth="yes"/>
      <point x="504" y="88"/>
      <point x="416" y="0"/>
    </contour>
  </outline>
</glyph>
<glyph name="four" format="1">
  <advance width="616.0"/>
  <unicode hex="0034"/>
  <outline>
    <contour>
      <point x="520" y="1200" type="curve"/>
      <point x="308" y="1200" type="line" smooth="yes"/>
      <point x="300" y="1200"/>
      <point x="294" y="1194"/>
      <point x="292" y="1188" type="curve" smooth="yes"/>
      <point x="80" y="288" type="line"/>
      <point x="80" y="278"/>
      <point x="84" y="268"/>
      <point x="96" y="268" type="curve" smooth="yes"/>
      <point x="504" y="268" type="line"/>
      <point x="504" y="16" type="line" smooth="yes"/>
      <point x="504" y="8"/>
      <point x="512" y="0"/>
      <point x="520" y="0" type="curve" smooth="yes"/>
      <point x="528" y="0"/>
      <point x="536" y="8"/>
      <point x="536" y="16" type="curve" smooth="yes"/>
      <point x="536" y="1184" type="line" smooth="yes"/>
      <point x="536" y="1192"/>
      <point x="528" y="1200"/>
    </contour>
    <contour>
      <point x="504" y="300" type="line"/>
      <point x="116" y="300" type="line"/>
      <point x="320" y="1168" type="line"/>
      <point x="504" y="1168" type="line"/>
    </contour>
  </outline>
</glyph>
<glyph name="colon" format="1">
  <advance width="200.0"/>
  <unicode hex="003A"/>
  <outline>
    <contour>
      <point x="100" y="0" type="curve" smooth="yes"/>
      <point x="110" y="0"/>
      <point x="120" y="8"/>
      <point x="120" y="20" type="curve" smooth="yes"/>
      <point x="120" y="30"/>
      <point x="110" y="40"/>
      <point x="100" y="40" type="curve" smooth="yes"/>
      <point x="88" y="40"/>
      <point x="80" y="30"/>
      <point x="80" y="20" type="curve" smooth="yes"/>
      <point x="80" y="8"/>
      <point x="88" y="0"/>
    </contour>
    <contour>
      <point x="100" y="524" type="curve" smooth="yes"/>
      <point x="110" y="524"/>
      <point x="120" y="532"/>
      <point x="120" y="544" type="curve" smooth="yes"/>
      <point x="120" y="554"/>
      <point x="110" y="564"/>
      <point x="100" y="564" type="curve" smooth="yes"/>
      <point x="88" y="564"/>
      <point x="80" y="554"/>
      <point x="80" y="544" type="curve" smooth="yes"/>
      <point x="80" y="532"/>
      <point x="88" y="524"/>
    </contour>
  </outline>
</glyph>
<glyph name="less" format="1">
  <advance width="616.0"/>
  <unicode hex="003C"/>
  <outline>
    <contour>
      <point x="518" y="0" type="curve" smooth="yes"/>
      <point x="526" y="0"/>
      <point x="534" y="6"/>
      <point x="534" y="14" type="curve" smooth="yes"/>
      <point x="534" y="18"/>
      <point x="532" y="24"/>
      <point x="530" y="28" type="curve"/>
      <point x="116" y="440" type="line"/>
      <point x="528" y="850" type="line" smooth="yes"/>
      <point x="530" y="852"/>
      <point x="532" y="856"/>
      <point x="532" y="860" type="curve" smooth="yes"/>
      <point x="532" y="870"/>
      <point x="524" y="878"/>
      <point x="514" y="878" type="curve" smooth="yes"/>
      <point x="510" y="878"/>
      <point x="506" y="876"/>
      <point x="504" y="874" type="curve" smooth="yes"/>
      <point x="82" y="452" type="line" smooth="yes"/>
      <point x="78" y="448"/>
      <point x="78" y="442"/>
      <point x="78" y="438" type="curve" smooth="yes"/>
      <point x="78" y="434"/>
      <point x="78" y="430"/>
      <point x="82" y="428" type="curve" smooth="yes"/>
      <point x="506" y="4" type="line" smooth="yes"/>
      <point x="510" y="2"/>
      <point x="514" y="0"/>
    </contour>
  </outline>
</glyph>
<glyph name="greater" format="1">
  <advance width="616.0"/>
  <unicode hex="003E"/>
  <outline>
    <contour>
      <point x="98" y="0" type="curve" smooth="yes"/>
      <point x="102" y="0"/>
      <point x="106" y="2"/>
      <point x="110" y="4" type="curve" smooth="yes"/>
      <point x="534" y="428" type="line" smooth="yes"/>
      <point x="536" y="430"/>
      <point x="538" y="434"/>
      <point x="538" y="438" type="curve" smooth="yes"/>
      <point x="538" y="442"/>
      <point x="536" y="448"/>
      <point x="534" y="452" type="curve" smooth="yes"/>
      <point x="112" y="874" type="line" smooth="yes"/>
      <point x="108" y="876"/>
      <point x="102" y="878"/>
      <point x="98" y="878" type="curve" smooth="yes"/>
      <point x="88" y="878"/>
      <point x="84" y="870"/>
      <point x="84" y="860" type="curve" smooth="yes"/>
      <point x="84" y="856"/>
      <point x="84" y="852"/>
      <point x="88" y="850" type="curve" smooth="yes"/>
      <point x="500" y="440" type="line"/>
      <point x="86" y="28" type="line" smooth="yes"/>
      <point x="82" y="24"/>
      <point x="82" y="18"/>
      <point x="82" y="14" type="curve" smooth="yes"/>
      <point x="82" y="6"/>
      <point x="90" y="0"/>
    </contour>
  </outline>
</glyph>
<glyph name="A" format="1">
  <advance width="600.0"/>
  <unicode hex="0041"/>
  <outline>
    <contour>
      <point x="528" y="18" type="curve"/>
      <point x="480" y="284" type="line"/>
      <point x="480" y="286"/>
      <point x="480" y="288"/>
      <point x="480" y="290" type="curve"/>
      <point x="316" y="1218" type="line" smooth="yes"/>
      <point x="314" y="1226"/>
      <point x="308" y="1232"/>
      <point x="300" y="1232" type="curve" smooth="yes"/>
      <point x="292" y="1232"/>
      <point x="286" y="1226"/>
      <point x="284" y="1218" type="curve" smooth="yes"/>
      <point x="72" y="18" type="line"/>
      <point x="72" y="16"/>
      <point x="72" y="16"/>
      <point x="72" y="14" type="curve" smooth="yes"/>
      <point x="72" y="8"/>
      <point x="78" y="0"/>
      <point x="88" y="0" type="curve" smooth="yes"/>
      <point x="96" y="0"/>
      <point x="102" y="6"/>
      <point x="104" y="14" type="curve" smooth="yes"/>
      <point x="148" y="268" type="line"/>
      <point x="452" y="268" type="line"/>
      <point x="496" y="14" type="line" smooth="yes"/>
      <point x="498" y="6"/>
      <point x="504" y="-2"/>
      <point x="514" y="0" type="curve" smooth="yes"/>
      <point x="522" y="2"/>
      <point x="528" y="8"/>
      <point x="528" y="14" type="curve" smooth="yes"/>
      <point x="528" y="16"/>
      <point x="528" y="16"/>
    </contour>
    <contour>
      <point x="154" y="300" type="line"/>
      <point x="300" y="1124" type="line"/>
      <point x="446" y="300" type="line"/>
    </contour>
  </outline>
</glyph>
<glyph name="G" format="1">
  <advance width="616.0"/>
  <unicode hex="0047"/>
  <outline>
    <contour>
      <point x="308" y="-32" type="curve" smooth="yes"/>
      <point x="434" y="-32"/>
      <point x="536" y="70"/>
      <point x="536" y="196" type="curve" smooth="yes"/>
      <point x="536" y="376" type="line" smooth="yes"/>
      <point x="536" y="384"/>
      <point x="528" y="392"/>
      <point x="520" y="392" type="curve" smooth="yes"/>
      <point x="374" y="392" type="line" smooth="yes"/>
      <point x="366" y="392"/>
      <point x="358" y="384"/>
      <point x="358" y="376" type="curve" smooth="yes"/>
      <point x="358" y="368"/>
      <point x="366" y="360"/>
      <point x="374" y="360" type="curve" smooth="yes"/>
      <point x="504" y="360" type="line"/>
      <point x="504" y="196" type="line" smooth="yes"/>
      <point x="504" y="88"/>
      <point x="416" y="0"/>
      <point x="308" y="0" type="curve" smooth="yes"/>
      <point x="200" y="0"/>
      <point x="112" y="88"/>
      <point x="112" y="196" type="curve" smooth="yes"/>
      <point x="112" y="1004" type="line" smooth="yes"/>
      <point x="112" y="1112"/>
      <point x="200" y="1200"/>
      <point x="308" y="1200" type="curve" smooth="yes"/>
      <point x="416" y="1200"/>
      <point x="504" y="1112"/>
      <point x="504" y="1004" type="curve" smooth="yes"/>
      <point x="504" y="996"/>
      <point x="512" y="988"/>
      <point x="520" y="988" type="curve" smooth="yes"/>
      <point x="528" y="988"/>
      <point x="536" y="996"/>
      <point x="536" y="1004" type="curve" smooth="yes"/>
      <point x="536" y="1130"/>
      <point x="434" y="1232"/>
      <point x="308" y="1232" type="curve" smooth="yes"/>
      <point x="182" y="1232"/>
      <point x="80" y="1130"/>
      <point x="80" y="1004" type="curve" smooth="yes"/>
      <point x="80" y="196" type="line" smooth="yes"/>
      <point x="80" y="70"/>
      <point x="182" y="-32"/>
    </contour>
  </outline>
</glyph>
<glyph name="H" format="1">
  <advance width="616.0"/>
  <unicode hex="0048"/>
  <outline>
    <contour>
      <point x="520" y="1200" type="curve" smooth="yes"/>
      <point x="512" y="1200"/>
      <point x="504" y="1192"/>
      <point x="504" y="1184" type="curve" smooth="yes"/>
      <point x="504" y="562" type="line"/>
      <point x="112" y="562" type="line"/>
      <point x="112" y="1184" type="line" smooth="yes"/>
      <point x="112" y="1192"/>
      <point x="104" y="1200"/>
      <point x="96" y="1200" type="curve" smooth="yes"/>
      <point x="88" y="1200"/>
      <point x="80" y="1192"/>
      <point x="80" y="1184" type="curve" smooth="yes"/>
      <point x="80" y="16" type="line" smooth="yes"/>
      <point x="80" y="8"/>
      <point x="88" y="0"/>
      <point x="96" y="0" type="curve" smooth="yes"/>
      <point x="104" y="0"/>
      <point x="112" y="8"/>
      <point x="112" y="16" type="curve" smooth="yes"/>
      <point x="112" y="530" type="line"/>
      <point x="504" y="530" type="line"/>
      <point x="504" y="16" type="line" smooth="yes"/>
      <point x="504" y="8"/>
      <point x="512" y="0"/>
      <point x="520" y="0" type="curve" smooth="yes"/>
      <point x="528" y="0"/>
      <point x="536" y="8"/>
      <point x="536" y="16" type="curve" smooth="yes"/>
      <point x="536" y="1184" type="line" smooth="yes"/>
      <point x="536" y="1192"/>
      <point x="528" y="1200"/>
    </contour>
  </outline>
</glyph>
<glyph name="K" format="1">
  <advance width="712.0"/>
  <unicode hex="004B"/>
  <note>
  </note>
  <outline>
    <contour>
      <point x="142" y="678" type="line"/>
      <point x="626" y="1172" type="line" smooth="yes"/>
      <point x="628" y="1176"/>
      <point x="630" y="1180"/>
      <point x="630" y="1184" type="curve" smooth="yes"/>
      <point x="630" y="1194"/>
      <point x="622" y="1200"/>
      <point x="612" y="1200" type="curve" smooth="yes"/>
      <point x="608" y="1200"/>
      <point x="604" y="1198"/>
      <point x="602" y="1196" type="curve" smooth="yes"/>
      <point x="112" y="692" type="line"/>
      <point x="112" y="1184" type="line" smooth="yes"/>
      <point x="112" y="1192"/>
      <point x="104" y="1200"/>
      <point x="96" y="1200" type="curve" smooth="yes"/>
      <point x="88" y="1200"/>
      <point x="80" y="1192"/>
      <point x="80" y="1184" type="curve" smooth="yes"/>
      <point x="80" y="16" type="line" smooth="yes"/>
      <point x="80" y="8"/>
      <point x="88" y="0"/>
      <point x="96" y="0" type="curve" smooth="yes"/>
      <point x="104" y="0"/>
      <point x="112" y="8"/>
      <point x="112" y="16" type="curve" smooth="yes"/>
      <point x="112" y="646" type="line"/>
      <point x="120" y="654" type="line"/>
      <point x="602" y="6" type="line" smooth="yes"/>
      <point x="604" y="2"/>
      <point x="610" y="0"/>
      <point x="614" y="0" type="curve" smooth="yes"/>
      <point x="620" y="0"/>
      <point x="630" y="4"/>
      <point x="630" y="16" type="curve" smooth="yes"/>
      <point x="630" y="18"/>
      <point x="628" y="22"/>
      <point x="626" y="26" type="curve" smooth="yes"/>
    </contour>
  </outline>
</glyph>
<glyph name="M" format="1">
  <advance width="616.0"/>
  <unicode hex="004D"/>
  <outline>
    <contour>
      <point x="96" y="0" type="curve" smooth="yes"/>
      <point x="104" y="0"/>
      <point x="112" y="8"/>
      <point x="112" y="16" type="curve" smooth="yes"/>
      <point x="112" y="1114" type="line"/>
      <point x="292" y="648" type="line"/>
      <point x="296" y="642"/>
      <point x="302" y="636"/>
      <point x="308" y="636" type="curve" smooth="yes"/>
      <point x="314" y="636"/>
      <point x="320" y="642"/>
      <point x="322" y="648" type="curve" smooth="yes"/>
      <point x="504" y="1114" type="line"/>
      <point x="504" y="16" type="line" smooth="yes"/>
      <point x="504" y="8"/>
      <point x="512" y="0"/>
      <point x="520" y="0" type="curve" smooth="yes"/>
      <point x="528" y="0"/>
      <point x="536" y="8"/>
      <point x="536" y="16" type="curve" smooth="yes"/>
      <point x="536" y="1200" type="line" smooth="yes"/>
      <point x="536" y="1208"/>
      <point x="528" y="1216"/>
      <point x="520" y="1216" type="curve" smooth="yes"/>
      <point x="514" y="1216"/>
      <point x="508" y="1210"/>
      <point x="504" y="1206" type="curve"/>
      <point x="308" y="698" type="line"/>
      <point x="110" y="1206" type="line" smooth="yes"/>
      <point x="108" y="1210"/>
      <point x="102" y="1216"/>
      <point x="94" y="1216" type="curve" smooth="yes"/>
      <point x="88" y="1216"/>
      <point x="80" y="1208"/>
      <point x="80" y="1200" type="curve" smooth="yes"/>
      <point x="80" y="16" type="line" smooth="yes"/>
      <point x="80" y="8"/>
      <point x="88" y="0"/>
    </contour>
  </outline>
</glyph>
<glyph name="N" format="1">
  <advance width="632.0"/>
  <unicode hex="004E"/>
  <outline>
    <contour>
      <point x="536" y="0" type="curve" smooth="yes"/>
      <point x="544" y="0"/>
      <point x="552" y="8"/>
      <point x="552" y="16" type="curve" smooth="yes"/>
      <point x="552" y="1184" type="line" smooth="yes"/>
      <point x="552" y="1192"/>
      <point x="544" y="1200"/>
      <point x="536" y="1200" type="curve" smooth="yes"/>
      <point x="528" y="1200"/>
      <point x="520" y="1192"/>
      <point x="520" y="1184" type="curve" smooth="yes"/>
      <point x="520" y="104" type="line"/>
      <point x="110" y="1190" type="line" smooth="yes"/>
      <point x="108" y="1194"/>
      <point x="102" y="1200"/>
      <point x="96" y="1200" type="curve" smooth="yes"/>
      <point x="88" y="1200"/>
      <point x="80" y="1192"/>
      <point x="80" y="1184" type="curve" smooth="yes"/>
      <point x="80" y="16" type="line" smooth="yes"/>
      <point x="80" y="8"/>
      <point x="88" y="0"/>
      <point x="96" y="0" type="curve" smooth="yes"/>
      <point x="104" y="0"/>
      <point x="112" y="8"/>
      <point x="112" y="16" type="curve" smooth="yes"/>
      <point x="112" y="1096" type="line"/>
      <point x="520" y="10" type="line"/>
      <point x="524" y="4"/>
      <point x="530" y="0"/>
    </contour>
  </outline>
</glyph>
<glyph name="U" format="1">
  <advance width="616.0"/>
  <unicode hex="0055"/>
  <outline>
    <contour>
      <point x="308" y="-32" type="curve" smooth="yes"/>
      <point x="434" y="-32"/>
      <point x="536" y="70"/>
      <point x="536" y="196" type="curve" smooth="yes"/>
      <point x="536" y="1184" type="line" smooth="yes"/>
      <point x="536" y="1192"/>
      <point x="528" y="1200"/>
      <point x="520" y="1200" type="curve" smooth="yes"/>
      <point x="512" y="1200"/>
      <point x="504" y="1192"/>
      <point x="504" y="1184" type="curve" smooth="yes"/>
      <point x="504" y="196" type="line" smooth="yes"/>
      <point x="504" y="88"/>
      <point x="416" y="0"/>
      <point x="308" y="0" type="curve" smooth="yes"/>
      <point x="200" y="0"/>
      <point x="112" y="88"/>
      <point x="112" y="196" type="curve" smooth="yes"/>
      <point x="112" y="1184" type="line" smooth="yes"/>
      <point x="112" y="1192"/>
      <point x="104" y="1200"/>
      <point x="96" y="1200" type="curve" smooth="yes"/>
      <point x="88" y="1200"/>
      <point x="80" y="1192"/>
      <point x="80" y="1184" type="curve" smooth="yes"/>
      <point x="80" y="196" type="line" smooth="yes"/>
      <point x="80" y="70"/>
      <point x="182" y="-32"/>
    </contour>
  </outline>
</glyph>
<glyph name="V" format="1">
  <advance width="620.0"/>
  <unicode hex="0056"/>
  <outline>
    <contour>
      <point x="310" y="-32" type="curve" smooth="yes"/>
      <point x="318" y="-32"/>
      <point x="324" y="-26"/>
      <point x="326" y="-18" type="curve" smooth="yes"/>
      <point x="538" y="1182" type="line"/>
      <point x="538" y="1184" type="line" smooth="yes"/>
      <point x="538" y="1192"/>
      <point x="530" y="1200"/>
      <point x="520" y="1200" type="curve" smooth="yes"/>
      <point x="514" y="1200"/>
      <point x="508" y="1194"/>
      <point x="506" y="1186" type="curve" smooth="yes"/>
      <point x="310" y="76" type="line"/>
      <point x="114" y="1186" type="line" smooth="yes"/>
      <point x="112" y="1194"/>
      <point x="106" y="1200"/>
      <point x="98" y="1200" type="curve" smooth="yes"/>
      <point x="88" y="1200"/>
      <point x="82" y="1192"/>
      <point x="82" y="1184" type="curve"/>
      <point x="82" y="1182" type="line"/>
      <point x="294" y="-18" type="line" smooth="yes"/>
      <point x="296" y="-26"/>
      <point x="302" y="-32"/>
    </contour>
  </outline>
</glyph>
<glyph name="b" format="1">
  <advance width="616.0"/>
  <unicode hex="0062"/>
  <outline>
    <contour>
      <point x="308" y="868" type="curve" smooth="yes"/>
      <point x="224" y="868"/>
      <point x="152" y="824"/>
      <point x="112" y="756" type="curve"/>
      <point x="112" y="1200" type="line" smooth="yes"/>
      <point x="112" y="1208"/>
      <point x="104" y="1216"/>
      <point x="96" y="1216" type="curve" smooth="yes"/>
      <point x="88" y="1216"/>
      <point x="80" y="1208"/>
      <point x="80" y="1200" type="curve"/>
      <point x="80" y="640" type="line" smooth="yes"/>
      <point x="80" y="640" type="line" smooth="yes"/>
      <point x="80" y="640" type="line"/>
      <point x="80" y="212" type="line"/>
      <point x="80" y="86"/>
      <point x="182" y="-16"/>
      <point x="308" y="-16" type="curve" smooth="yes"/>
      <point x="434" y="-16"/>
      <point x="536" y="86"/>
      <point x="536" y="212" type="curve" smooth="yes"/>
      <point x="536" y="640" type="line" smooth="yes"/>
      <point x="536" y="766"/>
      <point x="434" y="868"/>
    </contour>
    <contour>
      <point x="504" y="212" type="line"/>
      <point x="504" y="104"/>
      <point x="416" y="16"/>
      <point x="308" y="16" type="curve" smooth="yes"/>
      <point x="200" y="16"/>
      <point x="112" y="104"/>
      <point x="112" y="212" type="curve" smooth="yes"/>
      <point x="112" y="640" type="line" smooth="yes"/>
      <point x="112" y="748"/>
      <point x="200" y="836"/>
      <point x="308" y="836" type="curve" smooth="yes"/>
      <point x="416" y="836"/>
      <point x="504" y="748"/>
      <point x="504" y="640" type="curve" smooth="yes"/>
    </contour>
  </outline>
</glyph>
<glyph name="d" format="1">
  <advance width="616.0"/>
  <unicode hex="0064"/>
  <outline>
    <contour>
      <point x="536" y="640" type="line" smooth="yes"/>
      <point x="536" y="640" type="line" smooth="yes"/>
      <point x="536" y="1200" type="line" smooth="yes"/>
      <point x="536" y="1208"/>
      <point x="528" y="1216"/>
      <point x="520" y="1216" type="curve" smooth="yes"/>
      <point x="512" y="1216"/>
      <point x="504" y="1208"/>
      <point x="504" y="1200" type="curve" smooth="yes"/>
      <point x="504" y="756" type="line"/>
      <point x="464" y="824"/>
      <point x="392" y="868"/>
      <point x="308" y="868" type="curve" smooth="yes"/>
      <point x="182" y="868"/>
      <point x="80" y="766"/>
      <point x="80" y="640" type="curve" smooth="yes"/>
      <point x="80" y="212" type="line" smooth="yes"/>
      <point x="80" y="86"/>
      <point x="182" y="-16"/>
      <point x="308" y="-16" type="curve" smooth="yes"/>
      <point x="434" y="-16"/>
      <point x="536" y="86"/>
      <point x="536" y="212" type="curve" smooth="yes"/>
      <point x="536" y="640" type="line" smooth="yes"/>
    </contour>
    <contour>
      <point x="308" y="16" type="curve" smooth="yes"/>
      <point x="200" y="16"/>
      <point x="112" y="104"/>
      <point x="112" y="212" type="curve" smooth="yes"/>
      <point x="112" y="640" type="line" smooth="yes"/>
      <point x="112" y="748"/>
      <point x="200" y="836"/>
      <point x="308" y="836" type="curve" smooth="yes"/>
      <point x="416" y="836"/>
      <point x="504" y="748"/>
      <point x="504" y="640" type="curve" smooth="yes"/>
      <point x="504" y="212" type="line" smooth="yes"/>
      <point x="504" y="104"/>
      <point x="416" y="16"/>
    </contour>
  </outline>
</glyph>
<glyph name="f" format="1">
  <advance width="364.0"/>
  <unicode hex="0066"/>
  <outline>
    <contour>
      <point x="308" y="1216" type="curve" smooth="yes"/>
      <point x="182" y="1216"/>
      <point x="80" y="1114"/>
      <point x="80" y="988" type="curve"/>
      <point x="80" y="16" type="line" smooth="yes"/>
      <point x="80" y="8"/>
      <point x="88" y="0"/>
      <point x="96" y="0" type="curve" smooth="yes"/>
      <point x="104" y="0"/>
      <point x="112" y="8"/>
      <point x="112" y="16" type="curve" smooth="yes"/>
      <point x="112" y="654" type="line"/>
      <point x="236" y="654" type="line" smooth="yes"/>
      <point x="244" y="654"/>
      <point x="252" y="660"/>
      <point x="252" y="670" type="curve" smooth="yes"/>
      <point x="252" y="678"/>
      <point x="244" y="686"/>
      <point x="236" y="686" type="curve" smooth="yes"/>
      <point x="112" y="686" type="line"/>
      <point x="112" y="988" type="line" smooth="yes"/>
      <point x="112" y="1096"/>
      <point x="200" y="1184"/>
      <point x="308" y="1184" type="curve" smooth="yes"/>
      <point x="316" y="1184"/>
      <point x="324" y="1192"/>
      <point x="324" y="1200" type="curve" smooth="yes"/>
      <point x="324" y="1208"/>
      <point x="316" y="1216"/>
    </contour>
  </outline>
</glyph>
<glyph name="g" format="1">
  <advance width="616.0"/>
  <unicode hex="0067"/>
  <outline>
    <contour>
      <point x="536" y="640" type="line" smooth="yes"/>
      <point x="536" y="766"/>
      <point x="434" y="868"/>
      <point x="308" y="868" type="curve" smooth="yes"/>
      <point x="182" y="868"/>
      <point x="80" y="766"/>
      <point x="80" y="640" type="curve" smooth="yes"/>
      <point x="80" y="212" type="line" smooth="yes"/>
      <point x="80" y="86"/>
      <point x="182" y="-16"/>
      <point x="308" y="-16" type="curve" smooth="yes"/>
      <point x="392" y="-16"/>
      <point x="464" y="28"/>
      <point x="504" y="96" type="curve"/>
      <point x="504" y="-252" type="line"/>
      <point x="504" y="-360"/>
      <point x="416" y="-448"/>
      <point x="308" y="-448" type="curve" smooth="yes"/>
      <point x="200" y="-448"/>
      <point x="112" y="-360"/>
      <point x="112" y="-252" type="curve" smooth="yes"/>
      <point x="112" y="-244"/>
      <point x="104" y="-236"/>
      <point x="96" y="-236" type="curve" smooth="yes"/>
      <point x="88" y="-236"/>
      <point x="80" y="-244"/>
      <point x="80" y="-252" type="curve" smooth="yes"/>
      <point x="80" y="-378"/>
      <point x="182" y="-480"/>
      <point x="308" y="-480" type="curve" smooth="yes"/>
      <point x="434" y="-480"/>
      <point x="536" y="-378"/>
      <point x="536" y="-252" type="curve" smooth="yes"/>
      <point x="536" y="212" type="line" smooth="yes"/>
      <point x="536" y="212" type="line" smooth="yes"/>
      <point x="536" y="212" type="line" smooth="yes"/>
    </contour>
    <contour>
      <point x="504" y="212" type="line" smooth="yes"/>
      <point x="504" y="104"/>
      <point x="416" y="16"/>
      <point x="308" y="16" type="curve" smooth="yes"/>
      <point x="200" y="16"/>
      <point x="112" y="104"/>
      <point x="112" y="212" type="curve" smooth="yes"/>
      <point x="112" y="640" type="line" smooth="yes"/>
      <point x="112" y="748"/>
      <point x="200" y="836"/>
      <point x="308" y="836" type="curve" smooth="yes"/>
      <point x="416" y="836"/>
      <point x="504" y="748"/>
      <point x="504" y="640" type="curve"/>
    </contour>
  </outline>
</glyph>
<glyph name="i" format="1">
  <advance width="200.0"/>
  <unicode hex="0069"/>
  <outline>
    <contour>
      <point x="100" y="852" type="curve" smooth="yes"/>
      <point x="92" y="852"/>
      <point x="84" y="844"/>
      <point x="84" y="836" type="curve" smooth="yes"/>
      <point x="84" y="16" type="line" smooth="yes"/>
      <point x="84" y="8"/>
      <point x="92" y="0"/>
      <point x="100" y="0" type="curve" smooth="yes"/>
      <point x="108" y="0"/>
      <point x="116" y="8"/>
      <point x="116" y="16" type="curve" smooth="yes"/>
      <point x="116" y="836" type="line" smooth="yes"/>
      <point x="116" y="844"/>
      <point x="108" y="852"/>
    </contour>
    <contour>
      <point x="100" y="1014" type="curve" smooth="yes"/>
      <point x="112" y="1014"/>
      <point x="120" y="1022"/>
      <point x="120" y="1034" type="curve" smooth="yes"/>
      <point x="120" y="1044"/>
      <point x="112" y="1054"/>
      <point x="100" y="1054" type="curve" smooth="yes"/>
      <point x="88" y="1054"/>
      <point x="80" y="1044"/>
      <point x="80" y="1034" type="curve" smooth="yes"/>
      <point x="80" y="1022"/>
      <point x="88" y="1014"/>
    </contour>
  </outline>
</glyph>
<glyph name="j" format="1">
  <advance width="196.0"/>
  <unicode hex="006A"/>
  <outline>
    <contour>
      <point x="96" y="1014" type="curve" smooth="yes"/>
      <point x="108" y="1014"/>
      <point x="116" y="1022"/>
      <point x="116" y="1034" type="curve" smooth="yes"/>
      <point x="116" y="1044"/>
      <point x="108" y="1054"/>
      <point x="96" y="1054" type="curve" smooth="yes"/>
      <point x="84" y="1054"/>
      <point x="76" y="1044"/>
      <point x="76" y="1034" type="curve" smooth="yes"/>
      <point x="76" y="1022"/>
      <point x="84" y="1014"/>
    </contour>
    <contour>
      <point x="96" y="852" type="curve" smooth="yes"/>
      <point x="88" y="852"/>
      <point x="80" y="844"/>
      <point x="80" y="836" type="curve" smooth="yes"/>
      <point x="80" y="16" type="line" smooth="yes"/>
      <point x="80" y="-36"/>
      <point x="60" y="-86"/>
      <point x="22" y="-122" type="curve" smooth="yes"/>
      <point x="16" y="-128"/>
      <point x="16" y="-138"/>
      <point x="22" y="-146" type="curve" smooth="yes"/>
      <point x="26" y="-148"/>
      <point x="30" y="-150"/>
      <point x="34" y="-150" type="curve" smooth="yes"/>
      <point x="38" y="-150"/>
      <point x="42" y="-148"/>
      <point x="46" y="-146" type="curve" smooth="yes"/>
      <point x="88" y="-102"/>
      <point x="112" y="-44"/>
      <point x="112" y="16" type="curve" smooth="yes"/>
      <point x="112" y="836" type="line" smooth="yes"/>
      <point x="112" y="844"/>
      <point x="104" y="852"/>
    </contour>
  </outline>
</glyph>
<glyph name="l" format="1">
  <advance width="192.0"/>
  <unicode hex="006C"/>
  <outline>
    <contour>
      <point x="96" y="0" type="curve" smooth="yes"/>
      <point x="104" y="0"/>
      <point x="112" y="8"/>
      <point x="112" y="16" type="curve" smooth="yes"/>
      <point x="112" y="1216" type="line" smooth="yes"/>
      <point x="112" y="1224"/>
      <point x="104" y="1232"/>
      <point x="96" y="1232" type="curve" smooth="yes"/>
      <point x="88" y="1232"/>
      <point x="80" y="1224"/>
      <point x="80" y="1216" type="curve" smooth="yes"/>
      <point x="80" y="16" type="line" smooth="yes"/>
      <point x="80" y="8"/>
      <point x="88" y="0"/>
    </contour>
  </outline>
</glyph>
<glyph name="m" format="1">
  <advance width="758.0"/>
  <unicode hex="006D"/>
  <outline>
    <contour>
      <point x="520" y="852" type="curve" smooth="yes"/>
      <point x="458" y="852"/>
      <point x="404" y="816"/>
      <point x="378" y="764" type="curve"/>
      <point x="354" y="816"/>
      <point x="300" y="852"/>
      <point x="238" y="852" type="curve" smooth="yes"/>
      <point x="186" y="852"/>
      <point x="140" y="828"/>
      <point x="112" y="790" type="curve"/>
      <point x="112" y="820" type="line" smooth="yes"/>
      <point x="112" y="828"/>
      <point x="104" y="836"/>
      <point x="96" y="836" type="curve" smooth="yes"/>
      <point x="88" y="836"/>
      <point x="80" y="828"/>
      <point x="80" y="820" type="curve" smooth="yes"/>
      <point x="80" y="694" type="line"/>
      <point x="80" y="16" type="line" smooth="yes"/>
      <point x="80" y="8"/>
      <point x="88" y="0"/>
      <point x="96" y="0" type="curve" smooth="yes"/>
      <point x="104" y="0"/>
      <point x="112" y="8"/>
      <point x="112" y="16" type="curve" smooth="yes"/>
      <point x="112" y="694" type="line" smooth="yes"/>
      <point x="112" y="764"/>
      <point x="168" y="820"/>
      <point x="238" y="820" type="curve" smooth="yes"/>
      <point x="306" y="820"/>
      <point x="362" y="764"/>
      <point x="362" y="694" type="curve" smooth="yes"/>
      <point x="362" y="16" type="line" smooth="yes"/>
      <point x="362" y="8"/>
      <point x="370" y="0"/>
      <point x="378" y="0" type="curve" smooth="yes"/>
      <point x="388" y="0"/>
      <point x="394" y="8"/>
      <point x="394" y="16" type="curve" smooth="yes"/>
      <point x="394" y="694" type="line" smooth="yes"/>
      <point x="394" y="764"/>
      <point x="450" y="820"/>
      <point x="520" y="820" type="curve" smooth="yes"/>
      <point x="590" y="820"/>
      <point x="646" y="764"/>
      <point x="646" y="694" type="curve" smooth="yes"/>
      <point x="646" y="16" type="line" smooth="yes"/>
      <point x="646" y="8"/>
      <point x="652" y="0"/>
      <point x="662" y="0" type="curve" smooth="yes"/>
      <point x="670" y="0"/>
      <point x="678" y="8"/>
      <point x="678" y="16" type="curve" smooth="yes"/>
      <point x="678" y="694" type="line" smooth="yes"/>
      <point x="678" y="782"/>
      <point x="606" y="852"/>
    </contour>
  </outline>
</glyph>
<glyph name="p" format="1">
  <advance width="616.0"/>
  <unicode hex="0070"/>
  <outline>
    <contour>
      <point x="308" y="868" type="curve" smooth="yes"/>
      <point x="182" y="868"/>
      <point x="80" y="766"/>
      <point x="80" y="640" type="curve" smooth="yes"/>
      <point x="80" y="212" type="line"/>
      <point x="80" y="212" type="line" smooth="yes"/>
      <point x="80" y="212" type="line" smooth="yes"/>
      <point x="80" y="-464" type="line" smooth="yes"/>
      <point x="80" y="-472"/>
      <point x="88" y="-480"/>
      <point x="96" y="-480" type="curve" smooth="yes"/>
      <point x="104" y="-480"/>
      <point x="112" y="-472"/>
      <point x="112" y="-464" type="curve" smooth="yes"/>
      <point x="112" y="96" type="line"/>
      <point x="152" y="28"/>
      <point x="224" y="-16"/>
      <point x="308" y="-16" type="curve" smooth="yes"/>
      <point x="434" y="-16"/>
      <point x="536" y="86"/>
      <point x="536" y="212" type="curve" smooth="yes"/>
      <point x="536" y="640" type="line" smooth="yes"/>
      <point x="536" y="766"/>
      <point x="434" y="868"/>
    </contour>
    <contour>
      <point x="504" y="212" type="line"/>
      <point x="504" y="104"/>
      <point x="416" y="16"/>
      <point x="308" y="16" type="curve" smooth="yes"/>
      <point x="200" y="16"/>
      <point x="112" y="104"/>
      <point x="112" y="212" type="curve" smooth="yes"/>
      <point x="112" y="640" type="line" smooth="yes"/>
      <point x="112" y="748"/>
      <point x="200" y="836"/>
      <point x="308" y="836" type="curve" smooth="yes"/>
      <point x="416" y="836"/>
      <point x="504" y="748"/>
      <point x="504" y="640" type="curve" smooth="yes"/>
    </contour>
  </outline>
</glyph>
<glyph name="r" format="1">
  <advance width="364.0"/>
  <unicode hex="0072"/>
  <outline>
    <contour>
      <point x="308" y="868" type="curve" smooth="yes"/>
      <point x="224" y="868"/>
      <point x="152" y="824"/>
      <point x="112" y="756" type="curve"/>
      <point x="112" y="820" type="line" smooth="yes"/>
      <point x="112" y="828"/>
      <point x="104" y="836"/>
      <point x="96" y="836" type="curve"/>
      <point x="96" y="836" type="line" smooth="yes"/>
      <point x="88" y="836"/>
      <point x="80" y="828"/>
      <point x="80" y="820" type="curve" smooth="yes"/>
      <point x="80" y="644" type="line" smooth="yes"/>
      <point x="80" y="644" type="line"/>
      <point x="80" y="642"/>
      <point x="80" y="642"/>
      <point x="80" y="640" type="curve" smooth="yes"/>
      <point x="80" y="16" type="line" smooth="yes"/>
      <point x="80" y="8"/>
      <point x="88" y="0"/>
      <point x="96" y="0" type="curve" smooth="yes"/>
      <point x="104" y="0"/>
      <point x="112" y="8"/>
      <point x="112" y="16" type="curve" smooth="yes"/>
      <point x="112" y="640" type="line" smooth="yes"/>
      <point x="112" y="748"/>
      <point x="200" y="836"/>
      <point x="308" y="836" type="curve" smooth="yes"/>
      <point x="316" y="836"/>
      <point x="324" y="844"/>
      <point x="324" y="852" type="curve" smooth="yes"/>
      <point x="324" y="860"/>
      <point x="316" y="868"/>
    </contour>
  </outline>
</glyph>
<glyph name="v" format="1">
  <advance width="576.0"/>
  <unicode hex="0076"/>
  <outline>
    <contour>
      <point x="288" y="-16" type="curve" smooth="yes"/>
      <point x="296" y="-16"/>
      <point x="302" y="-12"/>
      <point x="304" y="-4" type="curve" smooth="yes"/>
      <point x="516" y="832" type="line" smooth="yes"/>
      <point x="518" y="840"/>
      <point x="512" y="850"/>
      <point x="504" y="852" type="curve" smooth="yes"/>
      <point x="496" y="854"/>
      <point x="486" y="848"/>
      <point x="484" y="840" type="curve" smooth="yes"/>
      <point x="288" y="66" type="line"/>
      <point x="92" y="840" type="line" smooth="yes"/>
      <point x="90" y="848"/>
      <point x="80" y="854"/>
      <point x="72" y="852" type="curve" smooth="yes"/>
      <point x="64" y="850"/>
      <point x="58" y="840"/>
      <point x="60" y="832" type="curve" smooth="yes"/>
      <point x="272" y="-4" type="line" smooth="yes"/>
      <point x="274" y="-12"/>
      <point x="280" y="-16"/>
    </contour>
  </outline>
</glyph>
<glyph name="asciitilde" format="1">
  <advance width="616.0"/>
  <unicode hex="007E"/>
  <outline>
    <contour>
      <point x="380" y="596" type="curve" smooth="yes"/>
      <point x="414" y="596"/>
      <point x="476" y="628"/>
      <point x="476" y="680" type="curve" smooth="yes"/>
      <point x="476" y="688"/>
      <point x="468" y="696"/>
      <point x="458" y="696" type="curve" smooth="yes"/>
      <point x="438" y="696"/>
      <point x="436" y="628"/>
      <point x="378" y="628" type="curve" smooth="yes"/>
      <point x="314" y="628"/>
      <point x="310" y="710"/>
      <point x="236" y="710" type="curve" smooth="yes"/>
      <point x="200" y="710"/>
      <point x="140" y="678"/>
      <point x="140" y="624" type="curve" smooth="yes"/>
      <point x="140" y="618"/>
      <point x="146" y="610"/>
      <point x="156" y="610" type="curve" smooth="yes"/>
      <point x="174" y="610"/>
      <point x="178" y="678"/>
      <point x="236" y="678" type="curve" smooth="yes"/>
      <point x="294" y="678"/>
      <point x="304" y="596"/>
    </contour>
  </outline>
</glyph>
<glyph name="exclamdown" format="1">
  <advance width="160.0"/>
  <unicode hex="00A1"/>
  <outline>
    <contour>
      <point x="80" y="0" type="curve" smooth="yes"/>
      <point x="88" y="0"/>
      <point x="96" y="8"/>
      <point x="96" y="16" type="curve" smooth="yes"/>
      <point x="96" y="1090" type="line" smooth="yes"/>
      <point x="96" y="1098"/>
      <point x="88" y="1106"/>
      <point x="80" y="1106" type="curve" smooth="yes"/>
      <point x="72" y="1106"/>
      <point x="64" y="1098"/>
      <point x="64" y="1090" type="curve" smooth="yes"/>
      <point x="64" y="16" type="line" smooth="yes"/>
      <point x="64" y="8"/>
      <point x="72" y="0"/>
    </contour>
    <contour>
      <point x="80" y="1200" type="curve" smooth="yes"/>
      <point x="68" y="1200"/>
      <point x="60" y="1192"/>
      <point x="60" y="1180" type="curve" smooth="yes"/>
      <point x="60" y="1170"/>
      <point x="68" y="1160"/>
      <point x="80" y="1160" type="curve" smooth="yes"/>
      <point x="90" y="1160"/>
      <point x="100" y="1170"/>
      <point x="100" y="1180" type="curve" smooth="yes"/>
      <point x="100" y="1192"/>
      <point x="90" y="1200"/>
    </contour>
  </outline>
</glyph>
<glyph name="ordfeminine" format="1">
  <advance width="498"/>
  <unicode hex="00AA"/>
  <outline>
    <contour>
      <point x="280" y="1022" type="line"/>
      <point x="354" y="1022"/>
      <point x="418" y="1086"/>
      <point x="418" y="1162" type="curve"/>
      <point x="418" y="1302" type="line"/>
      <point x="418" y="1376"/>
      <point x="354" y="1440"/>
      <point x="280" y="1440" type="curve"/>
      <point x="220" y="1440" type="line"/>
      <point x="211" y="1440"/>
      <point x="204" y="1433"/>
      <point x="204" y="1424" type="curve" smooth="yes"/>
      <point x="204" y="1415"/>
      <point x="211" y="1408"/>
      <point x="220" y="1408" type="curve"/>
      <point x="280" y="1408" type="line"/>
      <point x="338" y="1408"/>
      <point x="386" y="1360"/>
      <point x="386" y="1302" type="curve"/>
      <point x="386" y="1279" type="line"/>
      <point x="360" y="1310"/>
      <point x="322" y="1330"/>
      <point x="280" y="1330" type="curve"/>
      <point x="220" y="1330" type="line"/>
      <point x="144" y="1330"/>
      <point x="80" y="1266"/>
      <point x="80" y="1192" type="curve"/>
      <point x="80" y="1162" type="line"/>
      <point x="80" y="1086"/>
      <point x="144" y="1022"/>
      <point x="220" y="1022" type="curve"/>
    </contour>
    <contour>
      <point x="220" y="1054" type="line"/>
      <point x="160" y="1054"/>
      <point x="112" y="1102"/>
      <point x="112" y="1162" type="curve"/>
      <point x="112" y="1192" type="line"/>
      <point x="112" y="1250"/>
      <point x="160" y="1298"/>
      <point x="220" y="1298" type="curve"/>
      <point x="280" y="1298" type="line"/>
      <point x="338" y="1298"/>
      <point x="386" y="1250"/>
      <point x="386" y="1192" type="curve"/>
      <point x="386" y="1162" type="line"/>
      <point x="386" y="1102"/>
      <point x="338" y="1054"/>
      <point x="280" y="1054" type="curve"/>
    </contour>
  </outline>
</glyph>
<glyph name="plusminus" format="1">
  <advance width="612.0"/>
  <unicode hex="00B1"/>
  <outline>
    <contour>
      <point x="516" y="562" type="curve"/>
      <point x="322" y="562" type="line"/>
      <point x="322" y="756" type="line" smooth="yes"/>
      <point x="322" y="766"/>
      <point x="314" y="772"/>
      <point x="306" y="772" type="curve" smooth="yes"/>
      <point x="298" y="772"/>
      <point x="290" y="766"/>
      <point x="290" y="756" type="curve" smooth="yes"/>
      <point x="290" y="562" type="line"/>
      <point x="96" y="562" type="line" smooth="yes"/>
      <point x="88" y="562"/>
      <point x="80" y="556"/>
      <point x="80" y="546" type="curve" smooth="yes"/>
      <point x="80" y="538"/>
      <point x="88" y="530"/>
      <point x="96" y="530" type="curve" smooth="yes"/>
      <point x="290" y="530" type="line"/>
      <point x="290" y="336" type="line" smooth="yes"/>
      <point x="290" y="328"/>
      <point x="298" y="320"/>
      <point x="306" y="320" type="curve" smooth="yes"/>
      <point x="314" y="320"/>
      <point x="322" y="328"/>
      <point x="322" y="336" type="curve" smooth="yes"/>
      <point x="322" y="530" type="line"/>
      <point x="516" y="530" type="line" smooth="yes"/>
      <point x="524" y="530"/>
      <point x="532" y="538"/>
      <point x="532" y="546" type="curve" smooth="yes"/>
      <point x="532" y="556"/>
      <point x="524" y="562"/>
    </contour>
    <contour>
      <point x="520" y="194" type="line"/>
      <point x="528" y="194"/>
      <point x="536" y="202"/>
      <point x="536" y="210" type="curve" smooth="yes"/>
      <point x="536" y="218"/>
      <point x="528" y="226"/>
      <point x="520" y="226" type="curve" smooth="yes"/>
      <point x="96" y="226" type="line" smooth="yes"/>
      <point x="88" y="226"/>
      <point x="80" y="218"/>
      <point x="80" y="210" type="curve" smooth="yes"/>
      <point x="80" y="202"/>
      <point x="88" y="194"/>
      <point x="96" y="194" type="curve" smooth="yes"/>
    </contour>
  </outline>
</glyph>
<glyph name="onequarter" format="1">
  <advance width="968"/>
  <unicode hex="00BC"/>
  <outline>
    <contour>
      <point x="871" y="1216"/>
      <point x="870" y="1216"/>
      <point x="869" y="1216" type="curve" smooth="yes"/>
      <point x="865" y="1215"/>
      <point x="862" y="1212"/>
      <point x="860" y="1209" type="curve" smooth="yes"/>
      <point x="82" y="11" type="line" smooth="yes"/>
      <point x="81" y="9"/>
      <point x="80" y="7"/>
      <point x="80" y="5" type="curve" smooth="yes"/>
      <point x="80" y="3"/>
      <point x="81" y="2"/>
      <point x="81" y="0" type="curve" smooth="yes"/>
      <point x="83" y="-9"/>
      <point x="89" y="-13"/>
      <point x="96" y="-13" type="curve" smooth="yes"/>
      <point x="97" y="-13"/>
      <point x="98" y="-13"/>
      <point x="99" y="-13" type="curve" smooth="yes"/>
      <point x="103" y="-12"/>
      <point x="106" y="-9"/>
      <point x="108" y="-6" type="curve" smooth="yes"/>
      <point x="886" y="1192" type="line" smooth="yes"/>
      <point x="887" y="1194"/>
      <point x="888" y="1197"/>
      <point x="888" y="1200" type="curve" smooth="yes"/>
      <point x="888" y="1201"/>
      <point x="888" y="1202"/>
      <point x="888" y="1203" type="curve" smooth="yes"/>
      <point x="886" y="1211"/>
      <point x="880" y="1216"/>
      <point x="872" y="1216" type="curve" smooth="yes"/>
    </contour>
    <contour>
      <point x="360" y="584" type="curve"/>
      <point x="244" y="584" type="line"/>
      <point x="244" y="1200" type="line" smooth="yes"/>
      <point x="244" y="1208"/>
      <point x="236" y="1216"/>
      <point x="226" y="1216" type="curve" smooth="yes"/>
      <point x="224" y="1216"/>
      <point x="219" y="1215"/>
      <point x="216" y="1212" type="curve" smooth="yes"/>
      <point x="84" y="1080" type="line" smooth="yes"/>
      <point x="80" y="1076"/>
      <point x="80" y="1070"/>
      <point x="80" y="1066" type="curve" smooth="yes"/>
      <point x="80" y="1058"/>
      <point x="86" y="1052"/>
      <point x="94" y="1052" type="curve" smooth="yes"/>
      <point x="98" y="1052"/>
      <point x="104" y="1052"/>
      <point x="108" y="1056" type="curve" smooth="yes"/>
      <point x="212" y="1162" type="line"/>
      <point x="212" y="584" type="line"/>
      <point x="96" y="584" type="line" smooth="yes"/>
      <point x="88" y="584"/>
      <point x="80" y="576"/>
      <point x="80" y="568" type="curve" smooth="yes"/>
      <point x="80" y="560"/>
      <point x="88" y="552"/>
      <point x="96" y="552" type="curve" smooth="yes"/>
      <point x="360" y="552" type="line" smooth="yes"/>
      <point x="368" y="552"/>
      <point x="376" y="560"/>
      <point x="376" y="568" type="curve" smooth="yes"/>
      <point x="376" y="576"/>
      <point x="368" y="584"/>
    </contour>
    <contour>
      <point x="872" y="648" type="curve"/>
      <point x="750" y="648" type="line" smooth="yes"/>
      <point x="742" y="648"/>
      <point x="737" y="642"/>
      <point x="734" y="636" type="curve" smooth="yes"/>
      <point x="552" y="222" type="line"/>
      <point x="552" y="212"/>
      <point x="556" y="202"/>
      <point x="568" y="202" type="curve" smooth="yes"/>
      <point x="856" y="202" type="line"/>
      <point x="856" y="0" type="line" smooth="yes"/>
      <point x="856" y="-8"/>
      <point x="864" y="-16"/>
      <point x="872" y="-16" type="curve" smooth="yes"/>
      <point x="880" y="-16"/>
      <point x="888" y="-8"/>
      <point x="888" y="0" type="curve" smooth="yes"/>
      <point x="888" y="632" type="line" smooth="yes"/>
      <point x="888" y="640"/>
      <point x="880" y="648"/>
    </contour>
    <contour>
      <point x="856" y="234" type="line"/>
      <point x="588" y="234" type="line"/>
      <point x="762" y="616" type="line"/>
      <point x="856" y="616" type="line"/>
    </contour>
  </outline>
</glyph>
<glyph name="onehalf" format="1">
  <advance width="968"/>
  <unicode hex="00BD"/>
  <outline>
    <contour>
      <point x="871" y="1216"/>
      <point x="870" y="1216"/>
      <point x="869" y="1216" type="curve" smooth="yes"/>
      <point x="865" y="1215"/>
      <point x="862" y="1212"/>
      <point x="860" y="1209" type="curve" smooth="yes"/>
      <point x="82" y="11" type="line" smooth="yes"/>
      <point x="81" y="9"/>
      <point x="80" y="7"/>
      <point x="80" y="5" type="curve" smooth="yes"/>
      <point x="80" y="3"/>
      <point x="81" y="2"/>
      <point x="81" y="0" type="curve" smooth="yes"/>
      <point x="83" y="-9"/>
      <point x="89" y="-13"/>
      <point x="96" y="-13" type="curve" smooth="yes"/>
      <point x="97" y="-13"/>
      <point x="98" y="-13"/>
      <point x="99" y="-13" type="curve" smooth="yes"/>
      <point x="103" y="-12"/>
      <point x="106" y="-9"/>
      <point x="108" y="-6" type="curve" smooth="yes"/>
      <point x="886" y="1192" type="line" smooth="yes"/>
      <point x="887" y="1194"/>
      <point x="888" y="1197"/>
      <point x="888" y="1200" type="curve" smooth="yes"/>
      <point x="888" y="1201"/>
      <point x="888" y="1202"/>
      <point x="888" y="1203" type="curve" smooth="yes"/>
      <point x="886" y="1211"/>
      <point x="880" y="1216"/>
      <point x="872" y="1216" type="curve" smooth="yes"/>
    </contour>
    <contour>
      <point x="360" y="584" type="curve"/>
      <point x="244" y="584" type="line"/>
      <point x="244" y="1200" type="line" smooth="yes"/>
      <point x="244" y="1208"/>
      <point x="236" y="1216"/>
      <point x="226" y="1216" type="curve" smooth="yes"/>
      <point x="224" y="1216"/>
      <point x="219" y="1215"/>
      <point x="216" y="1212" type="curve" smooth="yes"/>
      <point x="84" y="1080" type="line" smooth="yes"/>
      <point x="80" y="1076"/>
      <point x="80" y="1070"/>
      <point x="80" y="1066" type="curve" smooth="yes"/>
      <point x="80" y="1058"/>
      <point x="86" y="1052"/>
      <point x="94" y="1052" type="curve" smooth="yes"/>
      <point x="98" y="1052"/>
      <point x="104" y="1052"/>
      <point x="108" y="1056" type="curve" smooth="yes"/>
      <point x="212" y="1162" type="line"/>
      <point x="212" y="584" type="line"/>
      <point x="96" y="584" type="line" smooth="yes"/>
      <point x="88" y="584"/>
      <point x="80" y="576"/>
      <point x="80" y="568" type="curve" smooth="yes"/>
      <point x="80" y="560"/>
      <point x="88" y="552"/>
      <point x="96" y="552" type="curve" smooth="yes"/>
      <point x="360" y="552" type="line" smooth="yes"/>
      <point x="368" y="552"/>
      <point x="376" y="560"/>
      <point x="376" y="568" type="curve" smooth="yes"/>
      <point x="376" y="576"/>
      <point x="368" y="584"/>
    </contour>
    <contour>
      <point x="1323" y="664" type="curve" smooth="yes"/>
      <point x="1449" y="664"/>
      <point x="1551" y="766"/>
      <point x="1551" y="892" type="curve" smooth="yes"/>
      <point x="1551" y="988" type="line" smooth="yes"/>
      <point x="1551" y="1114"/>
      <point x="1449" y="1216"/>
      <point x="1323" y="1216" type="curve" smooth="yes"/>
      <point x="1197" y="1216"/>
      <point x="1095" y="1114"/>
      <point x="1095" y="988" type="curve" smooth="yes"/>
      <point x="1095" y="980"/>
      <point x="1103" y="972"/>
      <point x="1111" y="972" type="curve" smooth="yes"/>
      <point x="1119" y="972"/>
      <point x="1127" y="980"/>
      <point x="1127" y="988" type="curve" smooth="yes"/>
      <point x="1127" y="1096"/>
      <point x="1215" y="1184"/>
      <point x="1323" y="1184" type="curve" smooth="yes"/>
      <point x="1431" y="1184"/>
      <point x="1519" y="1096"/>
      <point x="1519" y="988" type="curve" smooth="yes"/>
      <point x="1519" y="892" type="line" smooth="yes"/>
      <point x="1519" y="784"/>
      <point x="1431" y="696"/>
      <point x="1323" y="696" type="curve" smooth="yes"/>
      <point x="1197" y="696"/>
      <point x="1095" y="594"/>
      <point x="1095" y="468" type="curve" smooth="yes"/>
      <point x="1095" y="364" type="line" smooth="yes"/>
      <point x="1095" y="354"/>
      <point x="1101" y="348"/>
      <point x="1111" y="348" type="curve" smooth="yes"/>
      <point x="1535" y="348" type="line" smooth="yes"/>
      <point x="1543" y="348"/>
      <point x="1551" y="356"/>
      <point x="1551" y="364" type="curve" smooth="yes"/>
      <point x="1551" y="372"/>
      <point x="1543" y="380"/>
      <point x="1535" y="380" type="curve" smooth="yes"/>
      <point x="1127" y="380" type="line"/>
      <point x="1127" y="468" type="line" smooth="yes"/>
      <point x="1127" y="576"/>
      <point x="1215" y="664"/>
    </contour>
  </outline>
</glyph>
<glyph name="AE" format="1">
  <advance width="718.0"/>
  <unicode hex="00C6"/>
  <outline>
    <contour>
      <point x="282" y="284" type="line"/>
      <point x="152" y="284" type="line"/>
      <point x="282" y="1008" type="line"/>
    </contour>
    <contour>
      <point x="104" y="14" type="curve" smooth="yes"/>
      <point x="146" y="252" type="line"/>
      <point x="282" y="252" type="line"/>
      <point x="282" y="16" type="line" smooth="yes"/>
      <point x="282" y="8"/>
      <point x="290" y="0"/>
      <point x="298" y="0" type="curve" smooth="yes"/>
      <point x="620" y="0" type="line" smooth="yes"/>
      <point x="628" y="0"/>
      <point x="636" y="8"/>
      <point x="636" y="16" type="curve" smooth="yes"/>
      <point x="636" y="24"/>
      <point x="628" y="32"/>
      <point x="620" y="32" type="curve" smooth="yes"/>
      <point x="314" y="32" type="line"/>
      <point x="314" y="530" type="line"/>
      <point x="542" y="530" type="line" smooth="yes"/>
      <point x="550" y="530"/>
      <point x="558" y="538"/>
      <point x="558" y="546" type="curve" smooth="yes"/>
      <point x="558" y="554"/>
      <point x="550" y="562"/>
      <point x="542" y="562" type="curve" smooth="yes"/>
      <point x="314" y="562" type="line"/>
      <point x="314" y="1184" type="line"/>
      <point x="622" y="1184" type="line" smooth="yes"/>
      <point x="630" y="1184"/>
      <point x="638" y="1192"/>
      <point x="638" y="1200" type="curve" smooth="yes"/>
      <point x="638" y="1208"/>
      <point x="630" y="1216"/>
      <point x="622" y="1216" type="curve" smooth="yes"/>
      <point x="300" y="1216" type="line" smooth="yes"/>
      <point x="298" y="1216" type="line"/>
      <point x="298" y="1216" type="line" smooth="yes"/>
      <point x="290" y="1216"/>
      <point x="282" y="1208"/>
      <point x="282" y="1200" type="curve" smooth="yes"/>
      <point x="282" y="1190" type="line"/>
      <point x="118" y="276" type="line"/>
      <point x="116" y="272"/>
      <point x="116" y="270"/>
      <point x="116" y="268" type="curve" smooth="yes"/>
      <point x="116" y="266" type="line"/>
      <point x="72" y="18" type="line" smooth="yes"/>
      <point x="70" y="10"/>
      <point x="76" y="2"/>
      <point x="86" y="0" type="curve" smooth="yes"/>
      <point x="94" y="-2"/>
      <point x="102" y="4"/>
    </contour>
  </outline>
</glyph>
<glyph name="Oslash" format="1">
  <advance width="616.0"/>
  <unicode hex="00D8"/>
  <outline>
    <contour>
      <point x="308" y="-32" type="curve" smooth="yes"/>
      <point x="434" y="-32"/>
      <point x="536" y="70"/>
      <point x="536" y="196" type="curve" smooth="yes"/>
      <point x="536" y="1004" type="line" smooth="yes"/>
      <point x="536" y="1086"/>
      <point x="494" y="1156"/>
      <point x="430" y="1196" type="curve"/>
      <point x="430" y="1198" type="line"/>
      <point x="430" y="1200" type="line" smooth="yes"/>
      <point x="430" y="1208"/>
      <point x="422" y="1216"/>
      <point x="412" y="1216" type="curve" smooth="yes"/>
      <point x="408" y="1216"/>
      <point x="406" y="1214"/>
      <point x="402" y="1212" type="curve"/>
      <point x="374" y="1224"/>
      <point x="342" y="1232"/>
      <point x="308" y="1232" type="curve" smooth="yes"/>
      <point x="182" y="1232"/>
      <point x="80" y="1130"/>
      <point x="80" y="1004" type="curve" smooth="yes"/>
      <point x="80" y="196" type="line" smooth="yes"/>
      <point x="80" y="114"/>
      <point x="122" y="44"/>
      <point x="186" y="4" type="curve"/>
      <point x="186" y="2" type="line"/>
      <point x="186" y="-2" type="line" smooth="yes"/>
      <point x="186" y="-8"/>
      <point x="192" y="-16"/>
      <point x="202" y="-16" type="curve" smooth="yes"/>
      <point x="206" y="-16"/>
      <point x="210" y="-14"/>
      <point x="212" y="-12" type="curve"/>
      <point x="242" y="-24"/>
      <point x="274" y="-32"/>
    </contour>
    <contour>
      <point x="112" y="196" type="curve" smooth="yes"/>
      <point x="112" y="1004" type="line" smooth="yes"/>
      <point x="112" y="1112"/>
      <point x="200" y="1200"/>
      <point x="308" y="1200" type="curve" smooth="yes"/>
      <point x="338" y="1200"/>
      <point x="368" y="1192"/>
      <point x="394" y="1180" type="curve"/>
      <point x="192" y="38" type="line"/>
      <point x="144" y="74"/>
      <point x="112" y="132"/>
    </contour>
    <contour>
      <point x="308" y="0" type="curve" smooth="yes"/>
      <point x="278" y="0"/>
      <point x="248" y="8"/>
      <point x="222" y="20" type="curve"/>
      <point x="424" y="1162" type="line"/>
      <point x="472" y="1126"/>
      <point x="504" y="1068"/>
      <point x="504" y="1004" type="curve" smooth="yes"/>
      <point x="504" y="196" type="line" smooth="yes"/>
      <point x="504" y="88"/>
      <point x="416" y="0"/>
    </contour>
  </outline>
</glyph>
<glyph name="eth" format="1">
  <advance width="615.791603027"/>
  <unicode hex="00F0"/>
  <outline>
    <contour>
      <point x="308" y="-32" type="curve" smooth="yes"/>
      <point x="434" y="-32"/>
      <point x="536" y="70"/>
      <point x="536" y="196" type="curve" smooth="yes"/>
      <point x="536" y="984" type="line" smooth="yes"/>
      <point x="536" y="1015"/>
      <point x="530" y="1045"/>
      <point x="519" y="1071" type="curve"/>
      <point x="580" y="1107" type="line"/>
      <point x="587" y="1111"/>
      <point x="590" y="1122"/>
      <point x="586" y="1129" type="curve" smooth="yes"/>
      <point x="582" y="1135"/>
      <point x="571" y="1138"/>
      <point x="564" y="1134" type="curve" smooth="yes"/>
      <point x="505" y="1100" type="line"/>
      <point x="465" y="1167"/>
      <point x="392" y="1212"/>
      <point x="308" y="1212" type="curve"/>
      <point x="300" y="1212"/>
      <point x="292" y="1204"/>
      <point x="292" y="1196" type="curve" smooth="yes"/>
      <point x="292" y="1188"/>
      <point x="300" y="1180"/>
      <point x="308" y="1180" type="curve"/>
      <point x="380" y="1180"/>
      <point x="443" y="1141"/>
      <point x="477" y="1083" type="curve"/>
      <point x="414" y="1047" type="line" smooth="yes"/>
      <point x="407" y="1043"/>
      <point x="404" y="1032"/>
      <point x="408" y="1026" type="curve" smooth="yes"/>
      <point x="412" y="1019"/>
      <point x="423" y="1016"/>
      <point x="430" y="1020" type="curve" smooth="yes"/>
      <point x="491" y="1055" type="line"/>
      <point x="499" y="1033"/>
      <point x="504" y="1009"/>
      <point x="504" y="984" type="curve" smooth="yes"/>
      <point x="504" y="772" type="line"/>
      <point x="464" y="840"/>
      <point x="392" y="884"/>
      <point x="308" y="884" type="curve" smooth="yes"/>
      <point x="182" y="884"/>
      <point x="80" y="782"/>
      <point x="80" y="656" type="curve" smooth="yes"/>
      <point x="80" y="196" type="line" smooth="yes"/>
      <point x="80" y="70"/>
      <point x="182" y="-32"/>
    </contour>
    <contour>
      <point x="112" y="196" type="curve"/>
      <point x="112" y="656" type="line" smooth="yes"/>
      <point x="112" y="764"/>
      <point x="200" y="852"/>
      <point x="308" y="852" type="curve" smooth="yes"/>
      <point x="416" y="852"/>
      <point x="504" y="764"/>
      <point x="504" y="656" type="curve" smooth="yes"/>
      <point x="504" y="196" type="line" smooth="yes"/>
      <point x="504" y="88"/>
      <point x="416" y="0"/>
      <point x="308" y="0" type="curve" smooth="yes"/>
      <point x="200" y="0"/>
      <point x="112" y="88"/>
    </contour>
  </outline>
</glyph>
<glyph name="divide" format="1">
  <advance width="616.0"/>
  <unicode hex="00F7"/>
  <outline>
    <contour>
      <point x="520" y="530" type="line"/>
      <point x="528" y="530"/>
      <point x="536" y="538"/>
      <point x="536" y="546" type="curve" smooth="yes"/>
      <point x="536" y="554"/>
      <point x="528" y="562"/>
      <point x="520" y="562" type="curve" smooth="yes"/>
      <point x="96" y="562" type="line" smooth="yes"/>
      <point x="88" y="562"/>
      <point x="80" y="554"/>
      <point x="80" y="546" type="curve" smooth="yes"/>
      <point x="80" y="538"/>
      <point x="88" y="530"/>
      <point x="96" y="530" type="curve" smooth="yes"/>
    </contour>
    <contour>
      <point x="306" y="406" type="curve" smooth="yes"/>
      <point x="316" y="406"/>
      <point x="326" y="414"/>
      <point x="326" y="426" type="curve"/>
      <point x="326" y="436"/>
      <point x="316" y="446"/>
      <point x="306" y="446" type="curve" smooth="yes"/>
      <point x="294" y="446"/>
      <point x="286" y="436"/>
      <point x="286" y="426" type="curve" smooth="yes"/>
      <point x="286" y="414"/>
      <point x="294" y="406"/>
    </contour>
    <contour>
      <point x="306" y="646" type="curve" smooth="yes"/>
      <point x="316" y="646"/>
      <point x="326" y="654"/>
      <point x="326" y="666" type="curve"/>
      <point x="326" y="676"/>
      <point x="316" y="686"/>
      <point x="306" y="686" type="curve" smooth="yes"/>
      <point x="294" y="686"/>
      <point x="286" y="676"/>
      <point x="286" y="666" type="curve" smooth="yes"/>
      <point x="286" y="654"/>
      <point x="294" y="646"/>
    </contour>
  </outline>
</glyph>
<glyph name="oe" format="1">
  <advance width="1040"/>
  <unicode hex="0153"/>
  <outline>
    <contour>
      <point x="732" y="-16" type="curve" smooth="yes"/>
      <point x="858" y="-16"/>
      <point x="960" y="86"/>
      <point x="960" y="212" type="curve" smooth="yes"/>
      <point x="960" y="220"/>
      <point x="952" y="228"/>
      <point x="944" y="228" type="curve" smooth="yes"/>
      <point x="936" y="228"/>
      <point x="928" y="220"/>
      <point x="928" y="212" type="curve" smooth="yes"/>
      <point x="928" y="104"/>
      <point x="840" y="16"/>
      <point x="732" y="16" type="curve" smooth="yes"/>
      <point x="624" y="16"/>
      <point x="536" y="104"/>
      <point x="536" y="212" type="curve" smooth="yes"/>
      <point x="536" y="418" type="line"/>
      <point x="944" y="418" type="line" smooth="yes"/>
      <point x="952" y="418"/>
      <point x="960" y="426"/>
      <point x="960" y="434" type="curve" smooth="yes"/>
      <point x="960" y="640" type="line" smooth="yes"/>
      <point x="960" y="766"/>
      <point x="858" y="868"/>
      <point x="732" y="868" type="curve" smooth="yes"/>
      <point x="636" y="868"/>
      <point x="553" y="808"/>
      <point x="520" y="724" type="curve"/>
      <point x="487" y="808"/>
      <point x="404" y="868"/>
      <point x="308" y="868" type="curve" smooth="yes"/>
      <point x="182" y="868"/>
      <point x="80" y="766"/>
      <point x="80" y="640" type="curve" smooth="yes"/>
      <point x="80" y="212" type="line" smooth="yes"/>
      <point x="80" y="86"/>
      <point x="182" y="-16"/>
      <point x="308" y="-16" type="curve" smooth="yes"/>
      <point x="404" y="-16"/>
      <point x="487" y="44"/>
      <point x="520" y="128" type="curve"/>
      <point x="553" y="44"/>
      <point x="636" y="-16"/>
    </contour>
    <contour>
      <point x="308" y="836" type="curve" smooth="yes"/>
      <point x="416" y="836"/>
      <point x="504" y="748"/>
      <point x="504" y="640" type="curve" smooth="yes"/>
      <point x="504" y="212" type="line" smooth="yes"/>
      <point x="504" y="104"/>
      <point x="416" y="16"/>
      <point x="308" y="16" type="curve" smooth="yes"/>
      <point x="200" y="16"/>
      <point x="112" y="104"/>
      <point x="112" y="212" type="curve" smooth="yes"/>
      <point x="112" y="640" type="line" smooth="yes"/>
      <point x="112" y="748"/>
      <point x="200" y="836"/>
    </contour>
    <contour>
      <point x="536" y="640" type="line" smooth="yes"/>
      <point x="536" y="748"/>
      <point x="624" y="836"/>
      <point x="732" y="836" type="curve" smooth="yes"/>
      <point x="840" y="836"/>
      <point x="928" y="748"/>
      <point x="928" y="640" type="curve" smooth="yes"/>
      <point x="928" y="450" type="line"/>
      <point x="536" y="450" type="line"/>
    </contour>
  </outline>
</glyph>
<glyph name="longs" format="1">
  <advance width="324.0"/>
  <unicode hex="017F"/>
  <outline>
    <contour>
      <point x="308" y="1216" type="curve" smooth="yes"/>
      <point x="182" y="1216"/>
      <point x="80" y="1114"/>
      <point x="80" y="988" type="curve"/>
      <point x="80" y="16" type="line" smooth="yes"/>
      <point x="80" y="8"/>
      <point x="88" y="0"/>
      <point x="96" y="0" type="curve" smooth="yes"/>
      <point x="104" y="0"/>
      <point x="112" y="8"/>
      <point x="112" y="16" type="curve"/>
      <point x="112" y="988" type="line"/>
      <point x="112" y="1096"/>
      <point x="200" y="1184"/>
      <point x="308" y="1184" type="curve" smooth="yes"/>
      <point x="316" y="1184"/>
      <point x="324" y="1192"/>
      <point x="324" y="1200" type="curve" smooth="yes"/>
      <point x="324" y="1208"/>
      <point x="316" y="1216"/>
    </contour>
  </outline>
</glyph>
<glyph name="dotlessj" format="1">
  <advance width="196.0"/>
  <unicode hex="0237"/>
  <outline>
    <contour>
      <point x="96" y="852" type="curve" smooth="yes"/>
      <point x="88" y="852"/>
      <point x="80" y="844"/>
      <point x="80" y="836" type="curve" smooth="yes"/>
      <point x="80" y="16" type="line" smooth="yes"/>
      <point x="80" y="-36"/>
      <point x="60" y="-86"/>
      <point x="22" y="-122" type="curve" smooth="yes"/>
      <point x="16" y="-128"/>
      <point x="16" y="-138"/>
      <point x="22" y="-146" type="curve" smooth="yes"/>
      <point x="26" y="-148"/>
      <point x="30" y="-150"/>
      <point x="34" y="-150" type="curve" smooth="yes"/>
      <point x="38" y="-150"/>
      <point x="42" y="-148"/>
      <point x="46" y="-146" type="curve" smooth="yes"/>
      <point x="88" y="-102"/>
      <point x="112" y="-44"/>
      <point x="112" y="16" type="curve" smooth="yes"/>
      <point x="112" y="836" type="line" smooth="yes"/>
      <point x="112" y="844"/>
      <point x="104" y="852"/>
    </contour>
  </outline>
</glyph>
<glyph name="ezh" format="1">
  <advance width="617.852497556"/>
  <unicode hex="0292"/>
  <outline>
    <contour>
      <point x="308" y="-212" type="curve" smooth="yes"/>
      <point x="434" y="-212"/>
      <point x="536" y="-110"/>
      <point x="536" y="16" type="curve" smooth="yes"/>
      <point x="536" y="320" type="line" smooth="yes"/>
      <point x="536" y="436"/>
      <point x="449" y="532"/>
      <point x="337" y="546" type="curve"/>
      <point x="533" y="827" type="line" smooth="yes"/>
      <point x="543" y="841"/>
      <point x="537" y="852"/>
      <point x="520" y="852" type="curve" smooth="yes"/>
      <point x="99" y="852" type="line" smooth="yes"/>
      <point x="90" y="852"/>
      <point x="83" y="845"/>
      <point x="83" y="836" type="curve" smooth="yes"/>
      <point x="83" y="827"/>
      <point x="90" y="820"/>
      <point x="99" y="820" type="curve" smooth="yes"/>
      <point x="490" y="820" type="line"/>
      <point x="295" y="541" type="line" smooth="yes"/>
      <point x="294" y="539"/>
      <point x="293" y="538"/>
      <point x="293" y="536" type="curve"/>
      <point x="292" y="535"/>
      <point x="292" y="533"/>
      <point x="292" y="532" type="curve" smooth="yes"/>
      <point x="292" y="530"/>
      <point x="293" y="528"/>
      <point x="293" y="526" type="curve"/>
      <point x="295" y="523"/>
      <point x="296" y="521"/>
      <point x="299" y="519" type="curve" smooth="yes"/>
      <point x="301" y="518"/>
      <point x="302" y="517"/>
      <point x="304" y="517" type="curve"/>
      <point x="305" y="516"/>
      <point x="307" y="516"/>
      <point x="308" y="516" type="curve"/>
      <point x="416" y="516"/>
      <point x="504" y="428"/>
      <point x="504" y="320" type="curve" smooth="yes"/>
      <point x="504" y="16" type="line" smooth="yes"/>
      <point x="504" y="-92"/>
      <point x="416" y="-180"/>
      <point x="308" y="-180" type="curve" smooth="yes"/>
      <point x="200" y="-180"/>
      <point x="112" y="-92"/>
      <point x="112" y="16" type="curve"/>
      <point x="112" y="24"/>
      <point x="104" y="32"/>
      <point x="96" y="32" type="curve" smooth="yes"/>
      <point x="88" y="32"/>
      <point x="80" y="24"/>
      <point x="80" y="16" type="curve"/>
      <point x="80" y="-110"/>
      <point x="182" y="-212"/>
    </contour>
  </outline>
</glyph>
<glyph name="ring" format="1">
  <advance width="292.0"/>
  <unicode hex="02DA"/>
  <outline>
    <contour>
      <point x="146" y="1262" type="curve" smooth="yes"/>
      <point x="182" y="1262"/>
      <point x="212" y="1292"/>
      <point x="212" y="1328" type="curve" smooth="yes"/>
      <point x="212" y="1364"/>
      <point x="182" y="1394"/>
      <point x="146" y="1394" type="curve" smooth="yes"/>
      <point x="110" y="1394"/>
      <point x="80" y="1364"/>
      <point x="80" y="1328" type="curve" smooth="yes"/>
      <point x="80" y="1292"/>
      <point x="110" y="1262"/>
    </contour>
    <contour>
      <point x="146" y="1362" type="curve" smooth="yes"/>
      <point x="164" y="1362"/>
      <point x="180" y="1346"/>
      <point x="180" y="1328" type="curve" smooth="yes"/>
      <point x="180" y="1310"/>
      <point x="164" y="1294"/>
      <point x="146" y="1294" type="curve" smooth="yes"/>
      <point x="128" y="1294"/>
      <point x="112" y="1310"/>
      <point x="112" y="1328" type="curve" smooth="yes"/>
      <point x="112" y="1346"/>
      <point x="128" y="1362"/>
    </contour>
  </outline>
</glyph>
<glyph name="tilde" format="1">
  <advance width="380.0"/>
  <unicode hex="02DC"/>
  <outline>
    <contour>
      <point x="234" y="1286" type="curve" smooth="yes"/>
      <point x="262" y="1286"/>
      <point x="298" y="1312"/>
      <point x="298" y="1344" type="curve" smooth="yes"/>
      <point x="298" y="1354"/>
      <point x="290" y="1360"/>
      <point x="282" y="1360" type="curve" smooth="yes"/>
      <point x="260" y="1360"/>
      <point x="268" y="1318"/>
      <point x="234" y="1318" type="curve" smooth="yes"/>
      <point x="198" y="1318"/>
      <point x="194" y="1368"/>
      <point x="148" y="1368" type="curve" smooth="yes"/>
      <point x="118" y="1368"/>
      <point x="82" y="1346"/>
      <point x="82" y="1310" type="curve" smooth="yes"/>
      <point x="82" y="1302"/>
      <point x="90" y="1296"/>
      <point x="98" y="1296" type="curve" smooth="yes"/>
      <point x="120" y="1296"/>
      <point x="112" y="1336"/>
      <point x="148" y="1336" type="curve" smooth="yes"/>
      <point x="178" y="1336"/>
      <point x="192" y="1286"/>
    </contour>
  </outline>
</glyph>
<glyph name="Delta" format="1">
  <advance width="843"/>
  <unicode hex="0394"/>
  <outline>
    <contour>
      <point x="421" y="823" type="line"/>
      <point x="723" y="33" type="line" smooth="yes"/>
      <point x="119" y="33" type="line"/>
    </contour>
    <contour>
      <point x="761" y="23" type="curve" smooth="yes"/>
      <point x="436" y="874" type="line" smooth="yes"/>
      <point x="433" y="884"/>
      <point x="427" y="888"/>
      <point x="421" y="888" type="curve" smooth="yes"/>
      <point x="415" y="888"/>
      <point x="410" y="884"/>
      <point x="406" y="874" type="curve" smooth="yes"/>
      <point x="82" y="23" type="line" smooth="yes"/>
      <point x="81" y="20"/>
      <point x="80" y="18"/>
      <point x="80" y="15" type="curve" smooth="yes"/>
      <point x="80" y="7"/>
      <point x="87" y="1"/>
      <point x="97" y="1" type="curve" smooth="yes"/>
      <point x="746" y="1" type="line" smooth="yes"/>
      <point x="756" y="1"/>
      <point x="763" y="7"/>
      <point x="763" y="15" type="curve" smooth="yes"/>
      <point x="763" y="18"/>
      <point x="762" y="20"/>
    </contour>
  </outline>
</glyph>
<glyph name="Omega" format="1">
  <advance width="616"/>
  <unicode hex="03A9"/>
  <outline>
    <contour>
      <point x="398" y="136" type="move"/>
      <point x="472" y="136"/>
      <point x="536" y="200"/>
      <point x="536" y="276" type="curve"/>
      <point x="536" y="1004" type="line" smooth="yes"/>
      <point x="536" y="1130"/>
      <point x="434" y="1232"/>
      <point x="308" y="1232" type="curve" smooth="yes"/>
      <point x="182" y="1232"/>
      <point x="80" y="1130"/>
      <point x="80" y="1004" type="curve" smooth="yes"/>
      <point x="80" y="276" type="line"/>
      <point x="80" y="200"/>
      <point x="144" y="136"/>
      <point x="220" y="136" type="curve" smooth="yes"/>
      <point x="220" y="136"/>
      <point x="220" y="168"/>
      <point x="220" y="168" type="curve"/>
      <point x="160" y="168"/>
      <point x="112" y="216"/>
      <point x="112" y="276" type="curve"/>
      <point x="112" y="1004" type="line" smooth="yes"/>
      <point x="112" y="1112"/>
      <point x="200" y="1200"/>
      <point x="308" y="1200" type="curve" smooth="yes"/>
      <point x="416" y="1200"/>
      <point x="504" y="1112"/>
      <point x="504" y="1004" type="curve" smooth="yes"/>
      <point x="504" y="276" type="line"/>
      <point x="504" y="216"/>
      <point x="456" y="168"/>
      <point x="398" y="168" type="curve" smooth="yes"/>
    </contour>
    <contour>
      <point x="398" y="168" type="curve" smooth="yes"/>
      <point x="390" y="168"/>
      <point x="382" y="160"/>
      <point x="382" y="152" type="curve" smooth="yes"/>
      <point x="382" y="-60" type="line" smooth="yes"/>
      <point x="382" y="-68"/>
      <point x="390" y="-76"/>
      <point x="398" y="-76" type="curve" smooth="yes"/>
      <point x="536" y="-76" type="line" smooth="yes"/>
      <point x="544" y="-76"/>
      <point x="552" y="-68"/>
      <point x="552" y="-60" type="curve" smooth="yes"/>
      <point x="552" y="-52"/>
      <point x="544" y="-44"/>
      <point x="536" y="-44" type="curve" smooth="yes"/>
      <point x="414" y="-44" type="line"/>
      <point x="414" y="152" type="line"/>
      <point x="414" y="160"/>
      <point x="406" y="168"/>
    </contour>
    <contour>
      <point x="220" y="168" type="curve" smooth="yes"/>
      <point x="212" y="168"/>
      <point x="204" y="160"/>
      <point x="204" y="152" type="curve"/>
      <point x="204" y="-44" type="line"/>
      <point x="80" y="-44" type="line" smooth="yes"/>
      <point x="72" y="-44"/>
      <point x="64" y="-52"/>
      <point x="64" y="-60" type="curve" smooth="yes"/>
      <point x="64" y="-68"/>
      <point x="72" y="-76"/>
      <point x="80" y="-76" type="curve" smooth="yes"/>
      <point x="220" y="-76" type="line" smooth="yes"/>
      <point x="228" y="-76"/>
      <point x="236" y="-68"/>
      <point x="236" y="-60" type="curve" smooth="yes"/>
      <point x="236" y="152" type="line" smooth="yes"/>
      <point x="236" y="160"/>
      <point x="228" y="168"/>
    </contour>
  </outline>
</glyph>
<glyph name="quoteleft" format="1">
  <advance width="500"/>
  <unicode hex="2018"/>
  <outline>
    <contour>
      <point x="60" y="1120" type="curve" smooth="yes"/>
      <point x="60" y="1110"/>
      <point x="70" y="1100"/>
      <point x="80" y="1100" type="curve" smooth="yes"/>
      <point x="90" y="1100"/>
      <point x="97" y="1106"/>
      <point x="100" y="1116" type="curve" smooth="yes"/>
      <point x="124" y="1196" type="line"/>
      <point x="124" y="1196"/>
      <point x="125" y="1199"/>
      <point x="125" y="1200" type="curve" smooth="yes"/>
      <point x="125" y="1208"/>
      <point x="120" y="1216"/>
      <point x="110" y="1216" type="curve" smooth="yes"/>
      <point x="102" y="1216"/>
      <point x="96" y="1212"/>
      <point x="94" y="1206" type="curve" smooth="yes"/>
      <point x="62" y="1128" type="line" smooth="yes"/>
      <point x="61" y="1126"/>
      <point x="60" y="1124"/>
    </contour>
  </outline>
</glyph>
<glyph name="quoteright" format="1">
  <advance width="184"/>
  <unicode hex="2019"/>
  <outline>
    <contour>
      <point x="124" y="1196" type="curve" smooth="yes"/>
      <point x="124" y="1206"/>
      <point x="114" y="1216"/>
      <point x="104" y="1216" type="curve" smooth="yes"/>
      <point x="94" y="1216"/>
      <point x="86" y="1210"/>
      <point x="84" y="1200" type="curve" smooth="yes"/>
      <point x="60" y="1120" type="line"/>
      <point x="60" y="1118"/>
      <point x="60" y="1118"/>
      <point x="60" y="1116" type="curve" smooth="yes"/>
      <point x="60" y="1108"/>
      <point x="64" y="1100"/>
      <point x="74" y="1100" type="curve" smooth="yes"/>
      <point x="82" y="1100"/>
      <point x="88" y="1104"/>
      <point x="90" y="1110" type="curve" smooth="yes"/>
      <point x="122" y="1188" type="line" smooth="yes"/>
      <point x="124" y="1190"/>
      <point x="124" y="1192"/>
    </contour>
  </outline>
</glyph>
<glyph name="lira" format="1">
  <advance width="500"/>
  <unicode hex="20A4"/>
  <outline>
    <contour>
      <point x="234" y="606" type="line"/>
      <point x="234" y="654" type="line"/>
      <point x="358" y="654" type="line" smooth="yes"/>
      <point x="366" y="654"/>
      <point x="374" y="660"/>
      <point x="374" y="670" type="curve" smooth="yes"/>
      <point x="374" y="678"/>
      <point x="366" y="686"/>
      <point x="358" y="686" type="curve" smooth="yes"/>
      <point x="234" y="686" type="line"/>
      <point x="234" y="988" type="line" smooth="yes"/>
      <point x="234" y="1096"/>
      <point x="322" y="1184"/>
      <point x="430" y="1184" type="curve" smooth="yes"/>
      <point x="438" y="1184"/>
      <point x="446" y="1192"/>
      <point x="446" y="1200" type="curve" smooth="yes"/>
      <point x="446" y="1208"/>
      <point x="438" y="1216"/>
      <point x="430" y="1216" type="curve" smooth="yes"/>
      <point x="304" y="1216"/>
      <point x="202" y="1114"/>
      <point x="202" y="988" type="curve" smooth="yes"/>
      <point x="202" y="124" type="line" smooth="yes"/>
      <point x="202" y="64"/>
      <point x="154" y="16"/>
      <point x="96" y="16" type="curve"/>
      <point x="88" y="16"/>
      <point x="80" y="8"/>
      <point x="80" y="0" type="curve" smooth="yes"/>
      <point x="80" y="-8"/>
      <point x="88" y="-16"/>
      <point x="96" y="-16" type="curve" smooth="yes"/>
      <point x="520" y="-16" type="line"/>
      <point x="528" y="-16"/>
      <point x="536" y="-8"/>
      <point x="536" y="0" type="curve" smooth="yes"/>
      <point x="536" y="8"/>
      <point x="528" y="16"/>
      <point x="520" y="16" type="curve" smooth="yes"/>
      <point x="182" y="16" type="line"/>
      <point x="214" y="42"/>
      <point x="234" y="81"/>
      <point x="234" y="124" type="curve"/>
      <point x="234" y="574" type="line"/>
      <point x="358" y="574" type="line" smooth="yes"/>
      <point x="366" y="574"/>
      <point x="374" y="580"/>
      <point x="374" y="590" type="curve" smooth="yes"/>
      <point x="374" y="598"/>
      <point x="366" y="606"/>
      <point x="358" y="606" type="curve" smooth="yes"/>
    </contour>
  </outline>
</glyph>
<glyph name="minus" format="1">
  <advance width="612.0"/>
  <unicode hex="2212"/>
  <outline>
    <contour>
      <point x="516" y="530" type="line" smooth="yes"/>
      <point x="524" y="530"/>
      <point x="532" y="538"/>
      <point x="532" y="546" type="curve" smooth="yes"/>
      <point x="532" y="556"/>
      <point x="524" y="562"/>
      <point x="516" y="562" type="curve"/>
      <point x="96" y="562" type="line" smooth="yes"/>
      <point x="88" y="562"/>
      <point x="80" y="556"/>
      <point x="80" y="546" type="curve" smooth="yes"/>
      <point x="80" y="538"/>
      <point x="88" y="530"/>
      <point x="96" y="530" type="curve"/>
    </contour>
  </outline>
</glyph>
<glyph name="lessequal" format="1">
  <advance width="616.0"/>
  <unicode hex="2264"/>
  <outline>
    <contour>
      <point x="96" y="-15" type="curve"/>
      <point x="516" y="-15" type="line" smooth="yes"/>
      <point x="524" y="-15"/>
      <point x="532" y="-7"/>
      <point x="532" y="1" type="curve" smooth="yes"/>
      <point x="532" y="11"/>
      <point x="524" y="17"/>
      <point x="516" y="17" type="curve"/>
      <point x="96" y="17" type="line" smooth="yes"/>
      <point x="88" y="17"/>
      <point x="80" y="11"/>
      <point x="80" y="1" type="curve" smooth="yes"/>
      <point x="80" y="-7"/>
      <point x="88" y="-15"/>
    </contour>
    <contour>
      <point x="525" y="153"/>
      <point x="529" y="155"/>
      <point x="532" y="159" type="curve" smooth="yes"/>
      <point x="535" y="162"/>
      <point x="536" y="166"/>
      <point x="536" y="169" type="curve" smooth="yes"/>
      <point x="536" y="174"/>
      <point x="534" y="178"/>
      <point x="530" y="181" type="curve" smooth="yes"/>
      <point x="121" y="511" type="line"/>
      <point x="530" y="839" type="line" smooth="yes"/>
      <point x="534" y="842"/>
      <point x="536" y="846"/>
      <point x="536" y="851" type="curve" smooth="yes"/>
      <point x="536" y="854"/>
      <point x="535" y="858"/>
      <point x="532" y="861" type="curve" smooth="yes"/>
      <point x="529" y="865"/>
      <point x="525" y="867"/>
      <point x="520" y="867" type="curve" smooth="yes"/>
      <point x="517" y="867"/>
      <point x="513" y="866"/>
      <point x="510" y="863" type="curve" smooth="yes"/>
      <point x="86" y="523" type="line" smooth="yes"/>
      <point x="82" y="520"/>
      <point x="79" y="516"/>
      <point x="79" y="511" type="curve" smooth="yes"/>
      <point x="79" y="507"/>
      <point x="82" y="502"/>
      <point x="86" y="499" type="curve" smooth="yes"/>
      <point x="510" y="157" type="line" smooth="yes"/>
      <point x="513" y="154"/>
      <point x="517" y="153"/>
      <point x="520" y="153" type="curve" smooth="yes"/>
    </contour>
  </outline>
</glyph>
<glyph name="greaterequal" format="1">
  <advance width="616.0"/>
  <unicode hex="2265"/>
  <outline>
    <contour>
      <point x="79" y="166"/>
      <point x="80" y="162"/>
      <point x="83" y="159" type="curve" smooth="yes"/>
      <point x="86" y="155"/>
      <point x="90" y="153"/>
      <point x="95" y="153" type="curve" smooth="yes"/>
      <point x="98" y="153"/>
      <point x="102" y="154"/>
      <point x="105" y="157" type="curve" smooth="yes"/>
      <point x="529" y="499" type="line" smooth="yes"/>
      <point x="534" y="502"/>
      <point x="536" y="507"/>
      <point x="536" y="511" type="curve" smooth="yes"/>
      <point x="536" y="516"/>
      <point x="534" y="520"/>
      <point x="529" y="523" type="curve" smooth="yes"/>
      <point x="105" y="863" type="line" smooth="yes"/>
      <point x="102" y="866"/>
      <point x="98" y="867"/>
      <point x="95" y="867" type="curve" smooth="yes"/>
      <point x="90" y="867"/>
      <point x="86" y="865"/>
      <point x="83" y="861" type="curve" smooth="yes"/>
      <point x="80" y="858"/>
      <point x="79" y="854"/>
      <point x="79" y="851" type="curve" smooth="yes"/>
      <point x="79" y="846"/>
      <point x="81" y="842"/>
      <point x="85" y="839" type="curve" smooth="yes"/>
      <point x="494" y="511" type="line"/>
      <point x="85" y="181" type="line" smooth="yes"/>
      <point x="81" y="178"/>
      <point x="79" y="174"/>
      <point x="79" y="169" type="curve" smooth="yes"/>
    </contour>
    <contour>
      <point x="99" y="-15" type="curve" smooth="yes"/>
      <point x="519" y="-15" type="line"/>
      <point x="527" y="-15"/>
      <point x="535" y="-7"/>
      <point x="535" y="1" type="curve" smooth="yes"/>
      <point x="535" y="11"/>
      <point x="527" y="17"/>
      <point x="519" y="17" type="curve" smooth="yes"/>
      <point x="99" y="17" type="line"/>
      <point x="91" y="17"/>
      <point x="83" y="11"/>
      <point x="83" y="1" type="curve" smooth="yes"/>
      <point x="83" y="-7"/>
      <point x="91" y="-15"/>
    </contour>
  </outline>
</glyph>
<glyph name="four.oldstyle" format="1">
  <advance width="616.0"/>
  <unicode hex="F734"/>
  <outline>
    <contour>
      <point x="520" y="852" type="curve"/>
      <point x="308" y="852" type="line" smooth="yes"/>
      <point x="300" y="852"/>
      <point x="294" y="846"/>
      <point x="292" y="840" type="curve" smooth="yes"/>
      <point x="80" y="20" type="line"/>
      <point x="80" y="10"/>
      <point x="84" y="0"/>
      <point x="96" y="0" type="curve" smooth="yes"/>
      <point x="504" y="0" type="line"/>
      <point x="504" y="-252" type="line" smooth="yes"/>
      <point x="504" y="-260"/>
      <point x="512" y="-268"/>
      <point x="520" y="-268" type="curve" smooth="yes"/>
      <point x="528" y="-268"/>
      <point x="536" y="-260"/>
      <point x="536" y="-252" type="curve" smooth="yes"/>
      <point x="536" y="836" type="line" smooth="yes"/>
      <point x="536" y="844"/>
      <point x="528" y="852"/>
    </contour>
    <contour>
      <point x="504" y="32" type="line"/>
      <point x="116" y="32" type="line"/>
      <point x="320" y="820" type="line"/>
      <point x="504" y="820" type="line"/>
    </contour>
  </outline>
</glyph>
<glyph name="five.sup" format="1">
  <advance width="616.0"/>
  <outline>
    <contour>
      <point x="202" y="568" type="curve" smooth="yes"/>
      <point x="269" y="568"/>
      <point x="324" y="623"/>
      <point x="324" y="690" type="curve" smooth="yes"/>
      <point x="324" y="835" type="line" smooth="yes"/>
      <point x="324" y="903"/>
      <point x="269" y="957"/>
      <point x="202" y="957" type="curve" smooth="yes"/>
      <point x="113" y="957" type="line"/>
      <point x="112" y="1168" type="line"/>
      <point x="309" y="1168" type="line" smooth="yes"/>
      <point x="318" y="1168"/>
      <point x="325" y="1175"/>
      <point x="325" y="1184" type="curve" smooth="yes"/>
      <point x="325" y="1193"/>
      <point x="318" y="1200"/>
      <point x="309" y="1200" type="curve" smooth="yes"/>
      <point x="96" y="1200" type="line" smooth="yes"/>
      <point x="87" y="1200"/>
      <point x="80" y="1193"/>
      <point x="80" y="1184" type="curve" smooth="yes"/>
      <point x="81" y="941" type="line" smooth="yes"/>
      <point x="81" y="932"/>
      <point x="88" y="925"/>
      <point x="97" y="925" type="curve" smooth="yes"/>
      <point x="202" y="925" type="line" smooth="yes"/>
      <point x="251" y="925"/>
      <point x="292" y="885"/>
      <point x="292" y="835" type="curve" smooth="yes"/>
      <point x="292" y="690" type="line" smooth="yes"/>
      <point x="292" y="641"/>
      <point x="251" y="600"/>
      <point x="202" y="600" type="curve" smooth="yes"/>
      <point x="153" y="600"/>
      <point x="112" y="641"/>
      <point x="112" y="690" type="curve" smooth="yes"/>
      <point x="112" y="699"/>
      <point x="105" y="706"/>
      <point x="96" y="706" type="curve" smooth="yes"/>
      <point x="87" y="706"/>
      <point x="80" y="699"/>
      <point x="80" y="690" type="curve" smooth="yes"/>
      <point x="80" y="623"/>
      <point x="135" y="568"/>
    </contour>
  </outline>
</glyph>
<glyph name="four.sup" format="1">
  <advance width="404"/>
  <outline>
    <contour>
      <point x="308" y="584" type="curve" smooth="yes"/>
      <point x="317" y="584"/>
      <point x="324" y="591"/>
      <point x="324" y="600" type="curve" smooth="yes"/>
      <point x="324" y="1184" type="line" smooth="yes"/>
      <point x="324" y="1193"/>
      <point x="317" y="1200"/>
      <point x="308" y="1200" type="curve" smooth="yes"/>
      <point x="202" y="1200" type="line" smooth="yes"/>
      <point x="194" y="1200"/>
      <point x="188" y="1195"/>
      <point x="186" y="1188" type="curve" smooth="yes"/>
      <point x="80" y="738" type="line" smooth="yes"/>
      <point x="78" y="728"/>
      <point x="86" y="718"/>
      <point x="96" y="718" type="curve" smooth="yes"/>
      <point x="292" y="718" type="line"/>
      <point x="292" y="600" type="line" smooth="yes"/>
      <point x="292" y="591"/>
      <point x="299" y="584"/>
    </contour>
    <contour>
      <point x="292" y="1168" type="line"/>
      <point x="292" y="750" type="line"/>
      <point x="117" y="750" type="line"/>
      <point x="215" y="1168" type="line"/>
    </contour>
  </outline>
</glyph>
<glyph name="one.sup" format="1">
  <advance width="616.0"/>
  <outline>
    <contour>
      <point x="97" y="593" type="curve" smooth="yes"/>
      <point x="309" y="593" type="line" smooth="yes"/>
      <point x="318" y="593"/>
      <point x="325" y="600"/>
      <point x="325" y="609" type="curve" smooth="yes"/>
      <point x="325" y="618"/>
      <point x="318" y="625"/>
      <point x="309" y="625" type="curve" smooth="yes"/>
      <point x="219" y="625" type="line"/>
      <point x="219" y="1202" type="line" smooth="yes"/>
      <point x="219" y="1214"/>
      <point x="200" y="1222"/>
      <point x="192" y="1213" type="curve" smooth="yes"/>
      <point x="84" y="1105" type="line" smooth="yes"/>
      <point x="78" y="1099"/>
      <point x="78" y="1089"/>
      <point x="84" y="1083" type="curve" smooth="yes"/>
      <point x="90" y="1077"/>
      <point x="100" y="1077"/>
      <point x="106" y="1083" type="curve" smooth="yes"/>
      <point x="187" y="1164" type="line"/>
      <point x="187" y="625" type="line"/>
      <point x="97" y="625" type="line" smooth="yes"/>
      <point x="88" y="625"/>
      <point x="81" y="618"/>
      <point x="81" y="609" type="curve" smooth="yes"/>
      <point x="81" y="600"/>
      <point x="88" y="593"/>
    </contour>
  </outline>
</glyph>
<glyph name="two.sup" format="1">
  <advance width="404"/>
  <outline>
    <contour>
      <point x="96" y="600" type="curve" smooth="yes"/>
      <point x="308" y="600" type="line" smooth="yes"/>
      <point x="317" y="600"/>
      <point x="324" y="607"/>
      <point x="324" y="616" type="curve" smooth="yes"/>
      <point x="324" y="625"/>
      <point x="317" y="632"/>
      <point x="308" y="632" type="curve" smooth="yes"/>
      <point x="112" y="632" type="line"/>
      <point x="112" y="753" type="line" smooth="yes"/>
      <point x="112" y="803"/>
      <point x="153" y="843"/>
      <point x="202" y="843" type="curve" smooth="yes"/>
      <point x="269" y="843"/>
      <point x="324" y="898"/>
      <point x="324" y="965" type="curve" smooth="yes"/>
      <point x="324" y="1110" type="line" smooth="yes"/>
      <point x="324" y="1178"/>
      <point x="269" y="1232"/>
      <point x="202" y="1232" type="curve" smooth="yes"/>
      <point x="135" y="1232"/>
      <point x="80" y="1178"/>
      <point x="80" y="1110" type="curve" smooth="yes"/>
      <point x="80" y="1101"/>
      <point x="87" y="1094"/>
      <point x="96" y="1094" type="curve" smooth="yes"/>
      <point x="105" y="1094"/>
      <point x="112" y="1101"/>
      <point x="112" y="1110" type="curve" smooth="yes"/>
      <point x="112" y="1160"/>
      <point x="153" y="1200"/>
      <point x="202" y="1200" type="curve" smooth="yes"/>
      <point x="251" y="1200"/>
      <point x="292" y="1160"/>
      <point x="292" y="1110" type="curve" smooth="yes"/>
      <point x="292" y="965" type="line" smooth="yes"/>
      <point x="292" y="916"/>
      <point x="251" y="875"/>
      <point x="202" y="875" type="curve" smooth="yes"/>
      <point x="135" y="875"/>
      <point x="80" y="821"/>
      <point x="80" y="753" type="curve" smooth="yes"/>
      <point x="80" y="616" type="line" smooth="yes"/>
      <point x="80" y="607"/>
      <point x="87" y="600"/>
    </contour>
  </outline>
</glyph>
